<svg xmlns="http://www.w3.org/2000/svg" width="67" height="45" viewBox="0 0 67 45" fill="none"><g id="Group 1000014984"><g id="Group"><path id="Vector" fill-rule="evenodd" clip-rule="evenodd" d="M7.00594 20.9152V18.8301C5.41086 18.8301 3.92259 19.552 2.72625 20.8188C1.09206 22.5494 0 25.3304 0 28.4786C0 31.6245 1.09206 34.4081 2.72625 36.1384C3.92259 37.4051 5.41079 38.1271 7.00594 38.1271C7.58195 38.1271 8.04849 37.6606 8.04849 37.0846C8.04849 36.5086 7.58195 36.042 7.00594 36.042C5.9686 36.042 5.01986 35.5312 4.2432 34.7075C2.91654 33.3053 2.0851 31.0326 2.0851 28.4809C2.0851 25.9293 2.91654 23.6565 4.2432 22.2517C5.01992 21.4281 5.9686 20.9172 7.00594 20.9172V20.9152Z" fill="#707070"></path><path id="Vector_2" fill-rule="evenodd" clip-rule="evenodd" d="M59.023 38.1254C60.6181 38.1254 62.1064 37.4035 63.3027 36.1367C64.9369 34.4061 66.029 31.6251 66.029 28.4769C66.029 25.3287 64.9369 22.5474 63.3027 20.8171C62.1064 19.553 60.6182 18.8284 59.023 18.8284C58.447 18.8284 57.9805 19.2949 57.9805 19.8709C57.9805 20.4469 58.447 20.9135 59.023 20.9135C60.0604 20.9135 61.0091 21.4269 61.7858 22.2479C63.1124 23.6502 63.9439 25.9229 63.9439 28.4772C63.9439 31.0288 63.1124 33.3016 61.7858 34.7038C61.009 35.5274 60.0604 36.0382 59.023 36.0382C58.4861 36.7342 58.4053 37.4274 59.023 38.1233V38.1254Z" fill="#707070"></path><path id="Vector_3" fill-rule="evenodd" clip-rule="evenodd" d="M13.3573 14.1756C14.7283 12.0227 16.412 9.37463 17.843 7.12559C19.5657 4.41756 22.5501 2.77817 25.761 2.77817H40.2706C43.4791 2.77817 46.466 4.41756 48.1887 7.12559C49.6196 9.3749 51.3033 12.0229 52.6743 14.1756C52.9818 14.6604 53.6282 14.8037 54.113 14.4962C54.5978 14.186 54.7411 13.5422 54.4336 13.0575C53.0652 10.9046 51.3789 8.25653 49.948 6.00749C47.8446 2.69742 44.1931 0.693115 40.2704 0.693115H25.7608C21.8382 0.693115 18.189 2.69742 16.0832 6.00749C14.6524 8.2568 12.9686 10.9048 11.5976 13.0575C11.2901 13.5423 11.4334 14.1886 11.9182 14.4962C12.403 14.8037 13.0498 14.6604 13.3573 14.1756Z" fill="#707070"></path><path id="Vector_4" fill-rule="evenodd" clip-rule="evenodd" d="M34.2862 18.4994H31.745C31.1846 18.4994 30.6607 18.2309 30.3323 17.7749C29.5843 16.7323 28.4896 15.2075 27.7416 14.165C27.0249 13.1641 25.8676 12.5725 24.6374 12.5725H12.4945C8.88987 12.5725 5.96545 15.4943 5.96545 19.1015V38.0683C5.96545 41.6729 8.8872 44.5973 12.4945 44.5973H24.6374C25.8677 44.5973 27.0249 44.0056 27.7416 43.0048C28.4896 41.9622 29.5843 40.4375 30.3323 39.3949C30.6581 38.9414 31.1846 38.6704 31.745 38.6704H34.2862C34.8466 38.6704 35.3705 38.9388 35.6989 39.3949C36.4469 40.4375 37.5416 41.9622 38.2896 43.0048C39.0063 44.0056 40.1636 44.5973 41.3938 44.5973H53.5367C57.1413 44.5973 60.0657 41.6755 60.0657 38.0683V19.1015C60.0657 15.4969 57.144 12.5725 53.5367 12.5725H41.3938C40.1635 12.5725 39.0063 13.1642 38.2896 14.165C37.5416 15.2075 36.4469 16.7323 35.6989 17.7749C35.3731 18.2284 34.8466 18.4994 34.2862 18.4994ZM31.745 20.5845H34.2862C35.5165 20.5845 36.6736 19.9929 37.3904 18.992C38.1384 17.9495 39.2331 16.4247 39.9837 15.3822C40.3095 14.9286 40.836 14.6576 41.3938 14.6576H53.5367C55.992 14.6576 57.9806 16.6463 57.9806 19.1015V38.0709C57.9806 40.5236 55.992 42.5148 53.5367 42.5148H41.3938C40.8334 42.5148 40.3095 42.2464 39.9837 41.7903C39.2357 40.7477 38.141 39.223 37.3904 38.1804C36.6736 37.1796 35.5164 36.5879 34.2862 36.5879H31.745C30.5147 36.5879 29.3576 37.1796 28.6408 38.1804C27.8928 39.223 26.7981 40.7477 26.0475 41.7903C25.7217 42.2438 25.1952 42.5148 24.6374 42.5148H12.4945C10.0392 42.5148 8.05056 40.5262 8.05056 38.0709V19.1042C8.05056 16.649 10.0392 14.6603 12.4945 14.6603H24.6374C25.1978 14.6603 25.7217 14.9287 26.0475 15.3848C26.7955 16.4274 27.8902 17.9521 28.6408 18.9947C29.3576 19.9955 30.5148 20.5872 31.745 20.5872V20.5845Z" fill="#707070"></path><path id="Vector_5" fill-rule="evenodd" clip-rule="evenodd" d="M15.1297 23.5949H24.6351C25.1954 23.5949 25.7193 23.8633 26.0451 24.3194C26.7932 25.362 27.8878 26.8867 28.6385 27.9293C29.3552 28.9301 30.5124 29.5218 31.7426 29.5218H34.2838C35.5141 29.5218 36.6713 28.9301 37.388 27.9293C38.136 26.8867 39.2307 25.362 39.9813 24.3194C40.3071 23.8659 40.8336 23.5949 41.3914 23.5949H59.021C59.597 23.5949 60.0636 23.1283 60.0636 22.5523C60.0636 21.9763 59.597 21.5098 59.021 21.5098H41.3914C40.1612 21.5098 39.004 22.104 38.2872 23.1022C37.5392 24.1448 36.4445 25.6696 35.6965 26.7121C35.3707 27.1656 34.8443 27.4367 34.2838 27.4367H31.7426C31.1823 27.4367 30.6584 27.1682 30.33 26.7121C29.5819 25.6696 28.4873 24.1448 27.7392 23.1022C27.0225 22.104 25.8652 21.5098 24.6351 21.5098H15.1297C14.5537 21.5098 14.0871 21.9763 14.0871 22.5523C14.0871 23.1283 14.5537 23.5949 15.1297 23.5949ZM7.00544 23.5949H11.4467C12.0227 23.5949 12.4892 23.1283 12.4892 22.5523C12.4892 21.9763 12.0227 21.5098 11.4467 21.5098H7.00544C6.42943 21.5098 5.96289 21.9763 5.96289 22.5523C5.96289 23.1283 6.42943 23.5949 7.00544 23.5949Z" fill="#707070"></path></g></g></svg>