<svg xmlns="http://www.w3.org/2000/svg" xmlns:xlink="http://www.w3.org/1999/xlink" id="body_1" width="182" height="83"><defs><linearGradient gradientUnits="userSpaceOnUse" id="1" x1="0.500174" y1="12.0188" x2="17.7701" y2="12.0188"><stop offset="0%" stop-color="#F44A77" stop-opacity="1"></stop><stop offset="100%" stop-color="#EB234A" stop-opacity="1"></stop></linearGradient><linearGradient gradientUnits="userSpaceOnUse" id="252" x1="0.500106" y1="11.3127" x2="17.77" y2="11.3127"><stop offset="0%" stop-color="#F44A77" stop-opacity="1"></stop><stop offset="100%" stop-color="#EB234A" stop-opacity="1"></stop></linearGradient><linearGradient gradientUnits="userSpaceOnUse" id="503" x1="0.500079" y1="11.3126" x2="17.77" y2="11.3126"><stop offset="0%" stop-color="#F44A77" stop-opacity="1"></stop><stop offset="100%" stop-color="#EB234A" stop-opacity="1"></stop></linearGradient><linearGradient gradientUnits="userSpaceOnUse" id="754" x1="0.500129" y1="13.7523" x2="17.7701" y2="13.7523"><stop offset="0%" stop-color="#F44A77" stop-opacity="1"></stop><stop offset="100%" stop-color="#EB234A" stop-opacity="1"></stop></linearGradient><linearGradient gradientUnits="userSpaceOnUse" id="1007" x1="0.500092" y1="12.7512" x2="17.77" y2="12.7512"><stop offset="0%" stop-color="#F44A77" stop-opacity="1"></stop><stop offset="100%" stop-color="#EB234A" stop-opacity="1"></stop></linearGradient><linearGradient gradientUnits="userSpaceOnUse" id="1259" x1="0.500174" y1="12.0174" x2="17.7701" y2="12.0174"><stop offset="0%" stop-color="#F44A77" stop-opacity="1"></stop><stop offset="100%" stop-color="#EB234A" stop-opacity="1"></stop></linearGradient><linearGradient gradientUnits="userSpaceOnUse" id="1513" x1="0.500077" y1="14.0887" x2="17.77" y2="14.0887"><stop offset="0%" stop-color="#F44A77" stop-opacity="1"></stop><stop offset="100%" stop-color="#EB234A" stop-opacity="1"></stop></linearGradient><linearGradient gradientUnits="userSpaceOnUse" id="1765" x1="0.500087" y1="9.30085" x2="17.77" y2="9.30085"><stop offset="0%" stop-color="#F44A77" stop-opacity="1"></stop><stop offset="100%" stop-color="#EB234A" stop-opacity="1"></stop></linearGradient><linearGradient gradientUnits="userSpaceOnUse" id="2017" x1="0.50013" y1="14.0888" x2="17.7701" y2="14.0888"><stop offset="0%" stop-color="#F44A77" stop-opacity="1"></stop><stop offset="100%" stop-color="#EB234A" stop-opacity="1"></stop></linearGradient><linearGradient gradientUnits="userSpaceOnUse" id="2270" x1="0.500199" y1="14.0888" x2="17.7701" y2="14.0888"><stop offset="0%" stop-color="#F44A77" stop-opacity="1"></stop><stop offset="100%" stop-color="#EB234A" stop-opacity="1"></stop></linearGradient><linearGradient gradientUnits="userSpaceOnUse" id="2524" x1="0.500106" y1="16.1601" x2="17.77" y2="16.1601"><stop offset="0%" stop-color="#F44A77" stop-opacity="1"></stop><stop offset="100%" stop-color="#EB234A" stop-opacity="1"></stop></linearGradient><linearGradient gradientUnits="userSpaceOnUse" id="2776" x1="0.500107" y1="16.8648" x2="17.77" y2="16.8648"><stop offset="0%" stop-color="#F44A77" stop-opacity="1"></stop><stop offset="100%" stop-color="#EB234A" stop-opacity="1"></stop></linearGradient><linearGradient gradientUnits="userSpaceOnUse" id="3028" x1="0.500087" y1="18.8781" x2="17.77" y2="18.8781"><stop offset="0%" stop-color="#F44A77" stop-opacity="1"></stop><stop offset="100%" stop-color="#EB234A" stop-opacity="1"></stop></linearGradient><linearGradient gradientUnits="userSpaceOnUse" id="3280" x1="0.500174" y1="16.1601" x2="17.7701" y2="16.1601"><stop offset="0%" stop-color="#F44A77" stop-opacity="1"></stop><stop offset="100%" stop-color="#EB234A" stop-opacity="1"></stop></linearGradient><linearGradient gradientUnits="userSpaceOnUse" id="3534" x1="0.500148" y1="16.8648" x2="17.7701" y2="16.8648"><stop offset="0%" stop-color="#F44A77" stop-opacity="1"></stop><stop offset="100%" stop-color="#EB234A" stop-opacity="1"></stop></linearGradient><linearGradient gradientUnits="userSpaceOnUse" id="3788" x1="39.23" y1="9.97927" x2="56.4999" y2="9.97927"><stop offset="0%" stop-color="#89C244" stop-opacity="1"></stop><stop offset="100%" stop-color="#78A33B" stop-opacity="1"></stop></linearGradient><linearGradient gradientUnits="userSpaceOnUse" id="4039" x1="39.2301" y1="11.609" x2="56.5" y2="11.609"><stop offset="0%" stop-color="#89C244" stop-opacity="1"></stop><stop offset="100%" stop-color="#78A33B" stop-opacity="1"></stop></linearGradient><linearGradient gradientUnits="userSpaceOnUse" id="4287" x1="39.23" y1="12.7512" x2="56.4999" y2="12.7512"><stop offset="0%" stop-color="#89C244" stop-opacity="1"></stop><stop offset="100%" stop-color="#78A33B" stop-opacity="1"></stop></linearGradient><linearGradient gradientUnits="userSpaceOnUse" id="4538" x1="39.23" y1="14.3587" x2="56.4999" y2="14.3587"><stop offset="0%" stop-color="#89C244" stop-opacity="1"></stop><stop offset="100%" stop-color="#78A33B" stop-opacity="1"></stop></linearGradient><linearGradient gradientUnits="userSpaceOnUse" id="4789" x1="19.8658" y1="20.4841" x2="37.1344" y2="20.4841"><stop offset="0%" stop-color="#B87EB6" stop-opacity="1"></stop><stop offset="100%" stop-color="#9B519B" stop-opacity="1"></stop></linearGradient><linearGradient gradientUnits="userSpaceOnUse" id="5042" x1="19.8657" y1="19.3779" x2="37.1343" y2="19.3779"><stop offset="0%" stop-color="#B87EB6" stop-opacity="1"></stop><stop offset="100%" stop-color="#9B519B" stop-opacity="1"></stop></linearGradient><linearGradient gradientUnits="userSpaceOnUse" id="5295" x1="19.8657" y1="7.84426" x2="37.1343" y2="7.84426"><stop offset="0%" stop-color="#B87EB6" stop-opacity="1"></stop><stop offset="100%" stop-color="#9B519B" stop-opacity="1"></stop></linearGradient><linearGradient gradientUnits="userSpaceOnUse" id="5548" x1="0.47373" y1="17.6403" x2="0.613071" y2="17.6403"><stop offset="0%" stop-color="#B87EB6" stop-opacity="1"></stop><stop offset="100%" stop-color="#9B519B" stop-opacity="1"></stop></linearGradient><linearGradient gradientUnits="userSpaceOnUse" id="5802" x1="19.8658" y1="18.2882" x2="37.1343" y2="18.2882"><stop offset="0%" stop-color="#B87EB6" stop-opacity="1"></stop><stop offset="100%" stop-color="#9B519B" stop-opacity="1"></stop></linearGradient><linearGradient gradientUnits="userSpaceOnUse" id="6055" x1="19.8658" y1="12.7512" x2="37.1343" y2="12.7512"><stop offset="0%" stop-color="#B87EB6" stop-opacity="1"></stop><stop offset="100%" stop-color="#9B519B" stop-opacity="1"></stop></linearGradient><linearGradient gradientUnits="userSpaceOnUse" id="6308" x1="19.8657" y1="13.8479" x2="37.1343" y2="13.8479"><stop offset="0%" stop-color="#B87EB6" stop-opacity="1"></stop><stop offset="100%" stop-color="#9B519B" stop-opacity="1"></stop></linearGradient><linearGradient gradientUnits="userSpaceOnUse" id="6561" x1="19.8658" y1="5.47387" x2="37.1344" y2="5.47387"><stop offset="0%" stop-color="#B87EB6" stop-opacity="1"></stop><stop offset="100%" stop-color="#9B519B" stop-opacity="1"></stop></linearGradient><linearGradient gradientUnits="userSpaceOnUse" id="6814" x1="19.8658" y1="6.89583" x2="37.1343" y2="6.89583"><stop offset="0%" stop-color="#B87EB6" stop-opacity="1"></stop><stop offset="100%" stop-color="#9B519B" stop-opacity="1"></stop></linearGradient></defs><g transform="matrix(3.192308 0 0 3.192308 0.019228568 -0)"><path d="M13.7376 13.7606C 14.7478 12.6474 15.2048 11.5813 14.8217 10.9194C 14.6349 10.6356 14.3409 10.4376 14.0051 10.3725C 13.4324 10.2202 12.6605 10.2521 11.7868 10.439C 11.9638 11.0897 12.0864 11.7543 12.1561 12.4245C 12.719 12.826 13.2471 13.2718 13.7376 13.7592L13.7376 13.7592L13.7376 13.7606zM14.1263 12.1199C 14.2699 12.1199 14.3841 12.2348 14.3841 12.376C 14.3841 12.5172 14.2685 12.6322 14.1263 12.6322C 13.9842 12.6322 13.8686 12.5172 13.8686 12.376C 13.8686 12.2348 13.9842 12.1199 14.1263 12.1199z" stroke="none" fill="url(#1)"></path><path d="M7.83084 11.5425C 8.14018 11.3653 8.44812 11.2019 8.75746 11.0496C 8.27395 10.8502 7.7765 10.6827 7.27069 10.547C 7.13414 11.051 7.02963 11.5633 6.95996 12.0797C 7.23864 11.8956 7.52847 11.717 7.83084 11.5425z" stroke="none" fill="url(#252)"></path><path d="M9.85823 11.0495C 10.169 11.2004 10.4783 11.3652 10.7849 11.5424C 11.0872 11.7169 11.3771 11.8955 11.6557 12.0797C 11.5847 11.5618 11.4802 11.0495 11.3422 10.5455C 10.8364 10.6812 10.3404 10.8501 9.85684 11.0495L9.85684 11.0495L9.85823 11.0495z" stroke="none" fill="url(#503)"></path><path d="M8.63068 14.313C 8.7547 14.313 8.85641 14.212 8.85641 14.0887C 8.85641 13.8409 9.05846 13.6401 9.30788 13.6401C 9.43189 13.6401 9.53361 13.5391 9.53361 13.4158C 9.53361 13.2926 9.43189 13.1915 9.30788 13.1915C 8.80904 13.1915 8.40495 13.5931 8.40495 14.0887C 8.40495 14.212 8.50667 14.313 8.63068 14.313z" stroke="none" fill="url(#754)"></path><path d="M0.500092 25.3191L17.77 25.3191L17.77 0.18335L0.500092 0.18335L0.500092 25.3191zM5.19171 20.7209C 5.04958 20.7209 4.93393 20.606 4.93393 20.4648C 4.93393 20.3235 5.05097 20.2086 5.19171 20.2086C 5.33244 20.2086 5.44949 20.3235 5.44949 20.4648C 5.44949 20.606 5.33384 20.7209 5.19171 20.7209zM6.40815 19.3419C 6.33709 19.3419 6.27996 19.2851 6.27996 19.2145C 6.27996 19.1439 6.33709 19.0871 6.40815 19.0871C 6.47922 19.0871 6.53774 19.1439 6.53774 19.2145C 6.53774 19.2851 6.47922 19.3419 6.40815 19.3419zM10.1077 22.1235C 9.96414 22.1235 9.84988 22.0086 9.84988 21.8673C 9.84988 21.7261 9.96553 21.6112 10.1077 21.6112C 10.2498 21.6112 10.3654 21.7261 10.3654 21.8673C 10.3654 22.0086 10.2484 22.1235 10.1077 22.1235zM12.2075 19.3571C 12.057 19.3571 11.9344 19.2366 11.9344 19.0857C 11.9344 18.9348 12.057 18.8143 12.2075 18.8143C 12.358 18.8143 12.4806 18.9348 12.4806 19.0857C 12.4806 19.2366 12.358 19.3571 12.2075 19.3571zM13.8685 22.8947C 13.7152 22.8947 13.5926 22.7715 13.5926 22.6206C 13.5926 22.4696 13.7166 22.3478 13.8685 22.3478C 14.0204 22.3478 14.1444 22.471 14.1444 22.6206C 14.1444 22.7701 14.0204 22.8947 13.8685 22.8947zM14.384 19.4346C 14.2614 19.4346 14.1611 19.3363 14.1611 19.2131C 14.1611 19.0899 14.2614 18.9916 14.384 18.9916C 14.5067 18.9916 14.6084 19.0913 14.6084 19.2131C 14.6084 19.3349 14.5081 19.4346 14.384 19.4346zM16.6037 14.6273C 16.7041 14.6273 16.7863 14.7077 16.7863 14.8087C 16.7863 14.9098 16.7041 14.9887 16.6037 14.9887C 16.5034 14.9887 16.4212 14.907 16.4212 14.8087C 16.4212 14.7104 16.5034 14.6273 16.6037 14.6273zM16.6846 18.0999C 16.8309 18.0999 16.9493 18.2176 16.9493 18.3616C 16.9493 18.5056 16.8309 18.6233 16.6846 18.6233C 16.5383 18.6233 16.4212 18.5056 16.4212 18.3616C 16.4212 18.2176 16.5396 18.0999 16.6846 18.0999zM15.921 7.25581C 16.0129 7.25581 16.0882 7.3292 16.0882 7.42196C 16.0882 7.51473 16.0129 7.58811 15.921 7.58811C 15.829 7.58811 15.7538 7.51335 15.7538 7.42196C 15.7538 7.33058 15.829 7.25581 15.921 7.25581zM15.8555 14.0887C 15.8555 14.3366 15.6534 14.5374 15.404 14.5374C 15.1546 14.5374 14.9526 14.3366 14.9526 14.0887C 14.9526 13.8409 15.1546 13.6401 15.404 13.6401C 15.6534 13.6401 15.8555 13.8409 15.8555 14.0887zM13.6553 6.92351C 13.8392 6.92351 13.9897 7.07305 13.9897 7.25581C 13.9897 7.43858 13.8392 7.58811 13.6553 7.58811C 13.4714 7.58811 13.3195 7.43858 13.3195 7.25581C 13.3195 7.07305 13.47 6.92351 13.6553 6.92351zM12.7579 4.74833C 12.8666 4.74833 12.9558 4.83556 12.9558 4.94494C 12.9558 5.05432 12.8666 5.14155 12.7579 5.14155C 12.6492 5.14155 12.5601 5.05432 12.5601 4.94494C 12.5601 4.83556 12.6479 4.74833 12.7579 4.74833zM8.91212 2.84452C 9.13088 2.84452 9.30784 3.02037 9.30784 3.23775C 9.30784 3.45513 9.13088 3.63097 8.91212 3.63097C 8.69335 3.63097 8.51639 3.45513 8.51639 3.23775C 8.51639 3.02037 8.69335 2.84452 8.91212 2.84452zM8.51639 5.74385C 8.65015 5.74385 8.76023 5.85184 8.76023 5.98615C 8.76023 6.12045 8.65155 6.22707 8.51639 6.22707C 8.38123 6.22707 8.27254 6.11907 8.27254 5.98615C 8.27254 5.85323 8.38262 5.74385 8.51639 5.74385zM6.85962 3.14636C 6.96831 3.14636 7.05748 3.23359 7.05748 3.34297C 7.05748 3.45236 6.96831 3.53959 6.85962 3.53959C 6.75093 3.53959 6.66176 3.45236 6.66176 3.34297C 6.66176 3.23359 6.74954 3.14636 6.85962 3.14636zM4.89909 5.74385C 5.03286 5.74385 5.14154 5.85184 5.14154 5.98615C 5.14154 6.12045 5.03286 6.22707 4.89909 6.22707C 4.76532 6.22707 4.65524 6.11907 4.65524 5.98615C 4.65524 5.85323 4.76393 5.74385 4.89909 5.74385zM4.39746 8.64455C 4.53959 8.64455 4.65524 8.76086 4.65524 8.9007C 4.65524 9.04054 4.5382 9.15823 4.39746 9.15823C 4.25673 9.15823 4.13968 9.04193 4.13968 8.9007C 4.13968 8.75947 4.25533 8.64455 4.39746 8.64455zM3.56142 4.95879C 3.66174 4.95879 3.74256 5.04048 3.74256 5.14017C 3.74256 5.23986 3.66174 5.32155 3.56142 5.32155C 3.46109 5.32155 3.37888 5.24124 3.37888 5.14017C 3.37888 5.03909 3.4597 4.95879 3.56142 4.95879zM3.40535 10.6951C 3.65059 10.3061 4.04493 10.0333 4.49639 9.93914C 5.14712 9.76607 6.00267 9.79791 6.95995 10.007C 7.49084 8.3884 8.33664 7.35966 9.30784 7.35966C 10.2791 7.35966 11.1249 8.3884 11.6557 10.007C 12.613 9.79791 13.4686 9.76607 14.1193 9.93914C 14.5276 10.0236 14.8871 10.2562 15.1337 10.5857C 15.2271 10.6093 15.2953 10.691 15.2953 10.7907C 15.2953 10.8114 15.2912 10.8308 15.2856 10.8488C 15.6409 11.6906 15.1476 12.88 14.0496 14.0901C 15.2159 15.375 15.7008 16.6378 15.2089 17.4837C 14.9637 17.8728 14.5694 18.1456 14.1179 18.2397C 13.803 18.3187 13.4797 18.356 13.1564 18.3519C 12.6506 18.345 12.1462 18.2854 11.6543 18.1719C 11.1235 19.7905 10.2777 20.8192 9.30645 20.8192C 8.33524 20.8192 7.48944 19.7905 6.95855 18.1719C 6.46528 18.2854 5.96226 18.345 5.45646 18.3519C 5.13179 18.356 4.80852 18.3187 4.495 18.2397C 4.04214 18.1456 3.6492 17.8728 3.40396 17.4837C 2.91348 16.6364 3.39699 15.3736 4.56328 14.0901C 3.39699 12.8052 2.91209 11.5425 3.40396 10.6951L3.40396 10.6951L3.40535 10.6951zM3.21167 13.6401C 3.46109 13.6401 3.66313 13.8409 3.66313 14.0887C 3.66313 14.3366 3.46109 14.5374 3.21167 14.5374C 2.96225 14.5374 2.7602 14.3366 2.7602 14.0887C 2.7602 13.8409 2.96225 13.6401 3.21167 13.6401z" stroke="none" fill="url(#1007)"></path><path d="M6.45979 12.4258C 6.52946 11.7557 6.65208 11.0911 6.82905 10.4403C 6.37758 10.3379 5.91497 10.2825 5.45236 10.277C 5.16949 10.2728 4.88663 10.306 4.61352 10.3739C 4.27771 10.439 3.9837 10.6356 3.79698 10.9208C 3.4138 11.5812 3.87084 12.6488 4.88106 13.762C 5.37015 13.276 5.89964 12.8287 6.46119 12.4272L6.46119 12.4272L6.45979 12.4258z" stroke="none" fill="url(#1259)"></path><path d="M6.89165 15.5038C 7.25812 15.7613 7.64688 16.0105 8.05794 16.2459C 8.47318 16.4841 8.8912 16.6987 9.30783 16.8898C 9.72446 16.6987 10.1439 16.4841 10.5577 16.2459C 10.9674 16.0105 11.3561 15.7613 11.724 15.5038C 11.7686 15.0469 11.7923 14.5733 11.7923 14.0887C 11.7923 13.6041 11.7686 13.1306 11.724 12.6737C 11.3575 12.4162 10.9688 12.1669 10.5577 11.9316C 10.1439 11.6934 9.72307 11.4788 9.30644 11.2877C 8.88841 11.4788 8.47039 11.6934 8.05655 11.9316C 7.64688 12.1669 7.25812 12.4162 6.89026 12.6737C 6.84567 13.1306 6.82198 13.6041 6.82198 14.0887C 6.82198 14.5733 6.84567 15.0469 6.88887 15.5038L6.88887 15.5038L6.89165 15.5038zM9.30783 12.5186C 10.1801 12.5186 10.888 13.222 10.888 14.0887C 10.888 14.9555 10.1801 15.6589 9.30783 15.6589C 8.43555 15.6589 7.7277 14.9555 7.7277 14.0887C 7.7277 13.222 8.43555 12.5186 9.30783 12.5186z" stroke="none" fill="url(#1513)"></path><path d="M11.214 10.1136C 10.7542 8.71517 10.0645 7.80688 9.30784 7.80688C 8.55122 7.80688 7.86148 8.71517 7.40165 10.1136C 8.05377 10.2908 8.69195 10.5179 9.30784 10.7934C 9.92373 10.5179 10.5619 10.2894 11.214 10.1136zM8.85637 9.15409C 8.85637 8.90625 9.05842 8.70548 9.30784 8.70548C 9.55726 8.70548 9.7593 8.90625 9.7593 9.15409C 9.7593 9.40193 9.55726 9.60269 9.30784 9.60269C 9.05842 9.60269 8.85637 9.40193 8.85637 9.15409z" stroke="none" fill="url(#1765)"></path><path d="M5.19175 14.0888C 5.57354 14.4682 5.97902 14.8226 6.40819 15.1494C 6.38451 14.8046 6.37336 14.4516 6.37336 14.0888C 6.37336 13.726 6.38451 13.373 6.40819 13.0282C 5.98042 13.355 5.57354 13.7094 5.19175 14.0888zM5.73518 14.1123C 5.65993 14.1123 5.59723 14.0514 5.59723 13.9766C 5.59723 13.9019 5.65854 13.841 5.73518 13.841C 5.81181 13.841 5.87173 13.9019 5.87173 13.9766C 5.87173 14.0514 5.81042 14.1123 5.73518 14.1123z" stroke="none" fill="url(#2017)"></path><path d="M13.4241 14.0888C 13.0423 13.7094 12.6354 13.355 12.2076 13.0282C 12.2313 13.3743 12.2425 13.7274 12.2425 14.0888C 12.2425 14.4502 12.2313 14.8046 12.2076 15.1494C 12.6354 14.8226 13.0423 14.4682 13.4241 14.0888z" stroke="none" fill="url(#2270)"></path><path d="M4.8796 14.4183C 3.86937 15.5315 3.41234 16.5977 3.79552 17.2595C 3.98224 17.5433 4.27625 17.7413 4.61206 17.8064C 5.18476 17.9587 5.9567 17.9269 6.82898 17.74C 6.65202 17.0892 6.5294 16.4246 6.45973 15.7545C 5.89679 15.3529 5.36869 14.9071 4.8796 14.4197L4.8796 14.4197L4.8796 14.4183zM5.01894 17.0061C 4.76952 17.0061 4.56747 16.8054 4.56747 16.5575C 4.56747 16.3097 4.76952 16.1089 5.01894 16.1089C 5.26836 16.1089 5.4704 16.3097 5.4704 16.5575C 5.4704 16.8054 5.26836 17.0061 5.01894 17.0061z" stroke="none" fill="url(#2524)"></path><path d="M7.83084 16.635C 7.52847 16.4605 7.23864 16.2819 6.95996 16.0978C 7.03102 16.6156 7.13414 17.1279 7.27209 17.6305C 7.77789 17.4948 8.27395 17.3259 8.75885 17.1265C 8.44952 16.9756 8.14018 16.8108 7.83084 16.635z" stroke="none" fill="url(#2776)"></path><path d="M7.40165 18.0639C 7.86148 19.4624 8.55122 20.3707 9.30784 20.3707C 10.0645 20.3707 10.7542 19.4624 11.214 18.0639C 10.5619 17.8867 9.92373 17.6596 9.30784 17.3855C 8.69195 17.661 8.05377 17.8881 7.40165 18.0639z" stroke="none" fill="url(#3028)"></path><path d="M12.1561 15.7516C 12.0864 16.4231 11.9638 17.0864 11.7868 17.7371C 12.6591 17.9254 13.431 17.9573 14.0037 17.805C 14.3395 17.7399 14.6335 17.5433 14.8203 17.258C 15.2034 16.5976 14.7464 15.5301 13.7376 14.4169C 13.2471 14.9042 12.719 15.3501 12.1561 15.7516z" stroke="none" fill="url(#3280)"></path><path d="M9.8583 17.1279C 10.3418 17.3272 10.8393 17.4962 11.3451 17.6319C 11.4816 17.1279 11.5861 16.6156 11.6558 16.0991C 11.3771 16.2833 11.0873 16.4619 10.7849 16.635C 10.4756 16.8108 10.1662 16.9756 9.8583 17.1265L9.8583 17.1265L9.8583 17.1279z" stroke="none" fill="url(#3534)"></path><path d="M13.8685 22.3478C 13.7152 22.3478 13.5926 22.471 13.5926 22.6205C 13.5926 22.7701 13.7166 22.8947 13.8685 22.8947C 14.0204 22.8947 14.1444 22.7715 14.1444 22.6205C 14.1444 22.4696 14.0204 22.3478 13.8685 22.3478z" stroke="none" fill="#FFFFFF" fill-rule="nonzero"></path><path d="M5.19176 20.2073C 5.04964 20.2073 4.93398 20.3222 4.93398 20.4634C 4.93398 20.6047 5.05103 20.7196 5.19176 20.7196C 5.3325 20.7196 5.44955 20.6047 5.44955 20.4634C 5.44955 20.3222 5.33389 20.2073 5.19176 20.2073z" stroke="none" fill="#FFFFFF" fill-rule="nonzero"></path><path d="M3.56144 5.3215C 3.66177 5.3215 3.74259 5.2412 3.74259 5.14012C 3.74259 5.03905 3.66177 4.95874 3.56144 4.95874C 3.46112 4.95874 3.37891 5.04043 3.37891 5.14012C 3.37891 5.23981 3.45972 5.3215 3.56144 5.3215z" stroke="none" fill="#FFFFFF" fill-rule="nonzero"></path><path d="M6.40823 19.0857C 6.33716 19.0857 6.28003 19.1425 6.28003 19.2131C 6.28003 19.2837 6.33716 19.3405 6.40823 19.3405C 6.47929 19.3405 6.53781 19.2837 6.53781 19.2131C 6.53781 19.1425 6.47929 19.0857 6.40823 19.0857z" stroke="none" fill="#FFFFFF" fill-rule="nonzero"></path><path d="M10.1077 21.6099C 9.96419 21.6099 9.84993 21.7248 9.84993 21.866C 9.84993 22.0072 9.96559 22.1222 10.1077 22.1222C 10.2498 22.1222 10.3655 22.0072 10.3655 21.866C 10.3655 21.7248 10.2484 21.6099 10.1077 21.6099z" stroke="none" fill="#FFFFFF" fill-rule="nonzero"></path><path d="M4.39749 9.15821C 4.53962 9.15821 4.65528 9.04191 4.65528 8.90068C 4.65528 8.75945 4.53823 8.64453 4.39749 8.64453C 4.25676 8.64453 4.13971 8.76084 4.13971 8.90068C 4.13971 9.04052 4.25537 9.15821 4.39749 9.15821z" stroke="none" fill="#FFFFFF" fill-rule="nonzero"></path><path d="M4.89908 6.22846C 5.03285 6.22846 5.14154 6.12046 5.14154 5.98754C 5.14154 5.85462 5.03285 5.74524 4.89908 5.74524C 4.76531 5.74524 4.65524 5.85324 4.65524 5.98754C 4.65524 6.12185 4.76392 6.22846 4.89908 6.22846z" stroke="none" fill="#FFFFFF" fill-rule="nonzero"></path><path d="M5.73513 13.8409C 5.65988 13.8409 5.59718 13.9019 5.59718 13.9766C 5.59718 14.0514 5.65849 14.1123 5.73513 14.1123C 5.81176 14.1123 5.87168 14.0514 5.87168 13.9766C 5.87168 13.9019 5.81037 13.8409 5.73513 13.8409z" stroke="none" fill="#FFFFFF" fill-rule="nonzero"></path><path d="M6.8597 3.53958C 6.96838 3.53958 7.05756 3.45236 7.05756 3.34297C 7.05756 3.23359 6.96838 3.14636 6.8597 3.14636C 6.75101 3.14636 6.66183 3.23359 6.66183 3.34297C 6.66183 3.45236 6.74962 3.53958 6.8597 3.53958z" stroke="none" fill="#FFFFFF" fill-rule="nonzero"></path><path d="M8.5164 6.22846C 8.65016 6.22846 8.76024 6.12046 8.76024 5.98754C 8.76024 5.85462 8.65156 5.74524 8.5164 5.74524C 8.38123 5.74524 8.27255 5.85324 8.27255 5.98754C 8.27255 6.12185 8.38263 6.22846 8.5164 6.22846z" stroke="none" fill="#FFFFFF" fill-rule="nonzero"></path><path d="M8.91223 3.62958C 9.13099 3.62958 9.30796 3.45374 9.30796 3.23636C 9.30796 3.01898 9.13099 2.84314 8.91223 2.84314C 8.69346 2.84314 8.5165 3.01898 8.5165 3.23636C 8.5165 3.45374 8.69346 3.62958 8.91223 3.62958z" stroke="none" fill="#FFFFFF" fill-rule="nonzero"></path><path d="M12.758 5.14017C 12.8666 5.14017 12.9558 5.05294 12.9558 4.94356C 12.9558 4.83418 12.8666 4.74695 12.758 4.74695C 12.6493 4.74695 12.5601 4.83418 12.5601 4.94356C 12.5601 5.05294 12.6479 5.14017 12.758 5.14017z" stroke="none" fill="#FFFFFF" fill-rule="nonzero"></path><path d="M13.6554 7.58672C 13.8393 7.58672 13.9898 7.43719 13.9898 7.25442C 13.9898 7.07165 13.8393 6.92212 13.6554 6.92212C 13.4715 6.92212 13.3196 7.07165 13.3196 7.25442C 13.3196 7.43719 13.4701 7.58672 13.6554 7.58672z" stroke="none" fill="#FFFFFF" fill-rule="nonzero"></path><path d="M14.1263 12.6322C 14.2699 12.6322 14.3841 12.5172 14.3841 12.376C 14.3841 12.2348 14.2685 12.1199 14.1263 12.1199C 13.9842 12.1199 13.8686 12.2348 13.8686 12.376C 13.8686 12.5172 13.9842 12.6322 14.1263 12.6322z" stroke="none" fill="#FFFFFF" fill-rule="nonzero"></path><path d="M14.3841 18.9916C 14.2614 18.9916 14.1611 19.0913 14.1611 19.2131C 14.1611 19.335 14.2614 19.4346 14.3841 19.4346C 14.5067 19.4346 14.6084 19.3363 14.6084 19.2131C 14.6084 19.0899 14.5081 18.9916 14.3841 18.9916z" stroke="none" fill="#FFFFFF" fill-rule="nonzero"></path><path d="M12.2076 18.8143C 12.0571 18.8143 11.9345 18.9348 11.9345 19.0857C 11.9345 19.2366 12.0571 19.3571 12.2076 19.3571C 12.3581 19.3571 12.4807 19.2366 12.4807 19.0857C 12.4807 18.9348 12.3581 18.8143 12.2076 18.8143z" stroke="none" fill="#FFFFFF" fill-rule="nonzero"></path><path d="M15.2118 10.6951C 15.241 10.7449 15.2661 10.7962 15.2884 10.8488C 15.294 10.8308 15.2982 10.8114 15.2982 10.7906C 15.2982 10.6923 15.2285 10.6092 15.1365 10.5857C 15.163 10.6217 15.1895 10.6577 15.2132 10.6951L15.2132 10.6951L15.2118 10.6951z" stroke="none" fill="#FFFFFF" fill-rule="nonzero"></path><path d="M15.921 7.5867C 16.013 7.5867 16.0882 7.51193 16.0882 7.42054C 16.0882 7.32916 16.013 7.25439 15.921 7.25439C 15.829 7.25439 15.7538 7.32778 15.7538 7.42054C 15.7538 7.51331 15.829 7.5867 15.921 7.5867z" stroke="none" fill="#FFFFFF" fill-rule="nonzero"></path><path d="M16.6038 14.9887C 16.7041 14.9887 16.7863 14.907 16.7863 14.8087C 16.7863 14.7104 16.7041 14.6273 16.6038 14.6273C 16.5034 14.6273 16.4212 14.7076 16.4212 14.8087C 16.4212 14.9098 16.5034 14.9887 16.6038 14.9887z" stroke="none" fill="#FFFFFF" fill-rule="nonzero"></path><path d="M16.6846 18.6247C 16.8309 18.6247 16.9493 18.507 16.9493 18.363C 16.9493 18.219 16.8309 18.1013 16.6846 18.1013C 16.5383 18.1013 16.4212 18.219 16.4212 18.363C 16.4212 18.507 16.5397 18.6247 16.6846 18.6247z" stroke="none" fill="#FFFFFF" fill-rule="nonzero"></path><path d="M48.4251 8.04224L47.1209 9.67882L47.897 11.6159L49.9774 11.9163L51.2774 10.2797L50.5013 8.34269C 50.5013 8.34269 48.5436 8.05885 48.4251 8.04224z" stroke="none" fill="url(#3788)"></path><path d="M46.3197 9.97099L44.2394 9.67053L42.9393 11.3071L43.7154 13.2441L45.7916 13.5446L47.0959 11.908L46.3197 9.97099zM44.4944 11.357C 44.4637 11.3874 44.4163 11.5259 44.4163 11.5259C 44.4163 11.5259 44.369 11.3888 44.3383 11.357C 44.3076 11.3265 44.1683 11.2794 44.1683 11.2794C 44.1683 11.2794 44.309 11.2323 44.3383 11.2019C 44.369 11.1714 44.4163 11.033 44.4163 11.033C 44.4163 11.033 44.4637 11.17 44.4944 11.2019C 44.525 11.2323 44.6644 11.2794 44.6644 11.2794C 44.6644 11.2794 44.5264 11.3265 44.4944 11.357z" stroke="none" fill="url(#4039)"></path><path d="M39.23 0.18335L39.23 25.3191L56.4999 25.3191L56.4999 0.18335L39.23 0.18335zM54.2983 9.59853C 54.3415 9.557 54.4056 9.36592 54.4056 9.36592C 54.4056 9.36592 54.4711 9.557 54.5129 9.59853C 54.5561 9.64146 54.747 9.70515 54.747 9.70515C 54.747 9.70515 54.5561 9.76884 54.5129 9.81176C 54.4711 9.85468 54.4056 10.0458 54.4056 10.0458C 54.4056 10.0458 54.3415 9.85468 54.2983 9.81176C 54.2565 9.77022 54.0642 9.70515 54.0642 9.70515C 54.0642 9.70515 54.2565 9.64146 54.2983 9.59853zM48.7623 2.11623C 48.8334 2.04562 48.9407 1.72855 48.9407 1.72855C 48.9407 1.72855 49.0466 2.04562 49.119 2.11623C 49.1887 2.18685 49.5078 2.29346 49.5078 2.29346C 49.5078 2.29346 49.1887 2.40007 49.119 2.4693C 49.0466 2.53991 48.9407 2.85698 48.9407 2.85698C 48.9407 2.85698 48.8334 2.53991 48.7623 2.4693C 48.6912 2.39869 48.3735 2.29346 48.3735 2.29346C 48.3735 2.29346 48.6926 2.18685 48.7623 2.11623zM47.2769 4.11973C 47.3076 4.08927 47.355 3.95081 47.355 3.95081C 47.355 3.95081 47.4023 4.08788 47.433 4.11973C 47.4636 4.15157 47.6016 4.19726 47.6016 4.19726C 47.6016 4.19726 47.4636 4.24296 47.433 4.27342C 47.4023 4.30388 47.355 4.44234 47.355 4.44234C 47.355 4.44234 47.3076 4.30526 47.2769 4.27342C 47.2463 4.24296 47.1069 4.19726 47.1069 4.19726C 47.1069 4.19726 47.2449 4.15019 47.2769 4.11973zM45.23 6.14399C 45.23 6.14399 45.3373 6.46106 45.4084 6.53168C 45.478 6.60229 45.7971 6.7089 45.7971 6.7089C 45.7971 6.7089 45.478 6.81552 45.4084 6.88475C 45.3373 6.95536 45.23 7.27243 45.23 7.27243C 45.23 7.27243 45.1227 6.95536 45.053 6.88475C 44.982 6.81413 44.6629 6.7089 44.6629 6.7089C 44.6629 6.7089 44.982 6.60229 45.053 6.53168C 45.1241 6.46106 45.23 6.14399 45.23 6.14399zM44.1543 3.1519C 44.2254 3.08129 44.3326 2.76422 44.3326 2.76422C 44.3326 2.76422 44.4399 3.08129 44.5096 3.1519C 44.5807 3.22252 44.8998 3.32774 44.8998 3.32774C 44.8998 3.32774 44.5807 3.43436 44.5096 3.50497C 44.4385 3.57558 44.3326 3.89127 44.3326 3.89127C 44.3326 3.89127 44.2254 3.5742 44.1543 3.50497C 44.0832 3.43436 43.7655 3.32774 43.7655 3.32774C 43.7655 3.32774 44.0846 3.22113 44.1543 3.1519zM41.6085 3.81512C 41.6392 3.78466 41.6852 3.6462 41.6852 3.6462C 41.6852 3.6462 41.7325 3.78327 41.7632 3.81512C 41.7938 3.84558 41.9332 3.89127 41.9332 3.89127C 41.9332 3.89127 41.7938 3.93835 41.7632 3.96881C 41.7325 3.99927 41.6852 4.13773 41.6852 4.13773C 41.6852 4.13773 41.6378 4.00065 41.6085 3.96881C 41.5765 3.93835 41.4385 3.89127 41.4385 3.89127C 41.4385 3.89127 41.5765 3.84558 41.6085 3.81512zM41.4469 16.9825C 41.4037 17.0255 41.3396 17.2165 41.3396 17.2165C 41.3396 17.2165 41.2741 17.0255 41.2323 16.9825C 41.1891 16.941 40.9968 16.8759 40.9968 16.8759C 40.9968 16.8759 41.1891 16.8122 41.2323 16.7693C 41.2741 16.7264 41.3396 16.5353 41.3396 16.5353C 41.3396 16.5353 41.4037 16.7264 41.4469 16.7693C 41.4887 16.8108 41.681 16.8759 41.681 16.8759C 41.681 16.8759 41.4873 16.941 41.4469 16.9825zM41.4845 12.0188C 41.426 12.0769 41.3396 12.3372 41.3396 12.3372C 41.3396 12.3372 41.2518 12.0769 41.1933 12.0188C 41.1348 11.9606 40.8728 11.8748 40.8728 11.8748C 40.8728 11.8748 41.1348 11.7876 41.1933 11.7294C 41.2518 11.6713 41.3396 11.411 41.3396 11.411C 41.3396 11.411 41.4274 11.6713 41.4845 11.7294C 41.5416 11.7876 41.805 11.8748 41.805 11.8748C 41.805 11.8748 41.5416 11.962 41.4845 12.0188zM41.7925 8.38979C 41.7507 8.43271 41.6852 8.62378 41.6852 8.62378C 41.6852 8.62378 41.6211 8.43271 41.5779 8.38979C 41.5361 8.34825 41.3438 8.28318 41.3438 8.28318C 41.3438 8.28318 41.5361 8.21949 41.5779 8.17656C 41.6197 8.13364 41.6852 7.94257 41.6852 7.94257C 41.6852 7.94257 41.7507 8.13364 41.7925 8.17656C 41.8356 8.2181 42.0279 8.28318 42.0279 8.28318C 42.0279 8.28318 41.8356 8.34825 41.7925 8.38979zM51.4822 14.5775C 51.5352 14.7118 51.5115 14.8655 51.4209 14.979L51.4209 14.979L49.9369 16.8482L50.7716 18.644C 51.2788 18.5956 51.786 18.8628 52.0103 19.346C 52.296 19.9635 52.0271 20.6946 51.4056 20.9784C 51.0698 21.1321 50.6782 21.1321 50.3257 20.9535L50.3257 20.9535L48.9978 22.1401C 49.1901 22.6067 49.0884 23.1675 48.6871 23.5205C 48.1757 23.9761 47.3954 23.9345 46.9369 23.4278C 46.4827 22.9238 46.5203 22.1484 47.0317 21.6929C 47.3995 21.3634 47.9597 21.2623 48.4502 21.535L48.4502 21.535L49.7628 20.3651C 49.5426 19.8819 49.6694 19.3336 50.0289 18.9846L50.0289 18.9846L49.1538 17.0919L46.9049 16.7665C 46.7572 16.7458 46.6387 16.6488 46.5816 16.5145L46.5816 16.5145L45.7191 14.3574L43.3642 14.0167C 43.2165 13.996 43.0981 13.8991 43.0409 13.7648L43.0409 13.7648L42.092 11.3888C 42.0391 11.2545 42.06 11.1008 42.1492 10.9873L42.1492 10.9873L43.7432 8.98516C 43.8338 8.87163 43.9801 8.8107 44.1236 8.83424L44.1236 8.83424L46.4785 9.17485L47.9304 7.35135C 48.021 7.23781 48.1631 7.18105 48.3108 7.20458L48.3108 7.20458L49.1775 7.33058L49.452 5.45447C 49.002 5.21909 48.7247 4.71925 48.8027 4.19173C 48.9002 3.52159 49.5342 3.05498 50.2045 3.1519C 50.8789 3.24882 51.3485 3.87466 51.2509 4.5448C 51.1771 5.06125 50.7883 5.47108 50.2616 5.57216L50.2616 5.57216L49.9871 7.44412L50.8538 7.57011C 51.0015 7.59504 51.12 7.6878 51.1771 7.82211L51.1771 7.82211L52.126 10.1981C 52.1789 10.3324 52.158 10.4861 52.0689 10.5996L52.0689 10.5996L50.6169 12.4189L51.4836 14.5761L51.4822 14.5775zM47.3382 19.0206C 47.3382 19.0206 47.7883 18.8711 47.8886 18.7714C 47.989 18.6717 48.1394 18.2259 48.1394 18.2259C 48.1394 18.2259 48.2899 18.6717 48.3903 18.7714C 48.4906 18.8711 48.9393 19.0206 48.9393 19.0206C 48.9393 19.0206 48.4892 19.1702 48.3903 19.2699C 48.2899 19.3696 48.1394 19.8168 48.1394 19.8168C 48.1394 19.8168 47.989 19.3696 47.8886 19.2699C 47.7883 19.1702 47.3382 19.0206 47.3382 19.0206zM52.5106 11.1119C 52.4785 11.1423 52.4325 11.2808 52.4325 11.2808C 52.4325 11.2808 52.3852 11.1423 52.3545 11.1119C 52.3239 11.0814 52.1845 11.0343 52.1845 11.0343C 52.1845 11.0343 52.3239 10.9873 52.3545 10.9568C 52.3866 10.9264 52.4325 10.7879 52.4325 10.7879C 52.4325 10.7879 52.4785 10.925 52.5106 10.9568C 52.5412 10.9873 52.6792 11.0343 52.6792 11.0343C 52.6792 11.0343 52.5412 11.0814 52.5106 11.1119zM52.8826 7.37904C 52.8408 7.42058 52.7753 7.61165 52.7753 7.61165C 52.7753 7.61165 52.7112 7.42058 52.668 7.37904C 52.6262 7.33612 52.4339 7.27243 52.4339 7.27243C 52.4339 7.27243 52.6262 7.20874 52.668 7.16582C 52.7112 7.12289 52.7753 6.93182 52.7753 6.93182C 52.7753 6.93182 52.8408 7.12289 52.8826 7.16582C 52.9258 7.20874 53.1181 7.27243 53.1181 7.27243C 53.1181 7.27243 52.9258 7.33612 52.8826 7.37904zM53.6337 1.56101C 53.603 1.59147 53.5556 1.72993 53.5556 1.72993C 53.5556 1.72993 53.5097 1.59286 53.4776 1.56101C 53.4469 1.53055 53.309 1.48348 53.309 1.48348C 53.309 1.48348 53.4469 1.43778 53.4776 1.40732C 53.5097 1.37686 53.5556 1.2384 53.5556 1.2384C 53.5556 1.2384 53.603 1.37548 53.6337 1.40732C 53.6643 1.43778 53.8037 1.48348 53.8037 1.48348C 53.8037 1.48348 53.6657 1.53055 53.6337 1.56101zM54.5115 19.922C 54.4697 19.9649 54.4042 20.156 54.4042 20.156C 54.4042 20.156 54.3401 19.9649 54.2969 19.922C 54.2551 19.8805 54.0628 19.8154 54.0628 19.8154C 54.0628 19.8154 54.2551 19.7503 54.2969 19.7088C 54.3401 19.6659 54.4042 19.4748 54.4042 19.4748C 54.4042 19.4748 54.4697 19.6659 54.5115 19.7088C 54.5547 19.7503 54.7456 19.8154 54.7456 19.8154C 54.7456 19.8154 54.5547 19.8791 54.5115 19.922zM54.7303 14.284C 54.6996 14.3144 54.6522 14.4529 54.6522 14.4529C 54.6522 14.4529 54.6049 14.3158 54.5742 14.284C 54.5436 14.2535 54.4042 14.2064 54.4042 14.2064C 54.4042 14.2064 54.5436 14.1594 54.5742 14.1289C 54.6049 14.0984 54.6522 13.96 54.6522 13.96C 54.6522 13.96 54.6996 14.0971 54.7303 14.1289C 54.7609 14.1607 54.8989 14.2064 54.8989 14.2064C 54.8989 14.2064 54.7609 14.2535 54.7303 14.284z" stroke="none" fill="url(#4287)"></path><path d="M47.7786 12.4203L46.4785 14.0569L47.2547 15.9939L48.63 16.1933C 48.6592 16.1448 48.6927 16.0451 48.6927 16.0451C 48.6927 16.0451 48.7386 16.1822 48.7707 16.2141L48.7707 16.2141L49.3308 16.2957L50.6309 14.6592L49.8589 12.7221L47.7786 12.4217L47.7786 12.4203z" stroke="none" fill="url(#4538)"></path><path d="M41.3396 16.5353C 41.3396 16.5353 41.2741 16.7264 41.2323 16.7693C 41.1891 16.8108 40.9969 16.8759 40.9969 16.8759C 40.9969 16.8759 41.1891 16.941 41.2323 16.9825C 41.2741 17.0254 41.3396 17.2165 41.3396 17.2165C 41.3396 17.2165 41.4037 17.0254 41.4469 16.9825C 41.4887 16.941 41.681 16.8759 41.681 16.8759C 41.681 16.8759 41.4873 16.8122 41.4469 16.7693C 41.4037 16.7264 41.3396 16.5353 41.3396 16.5353z" stroke="none" fill="#FFFFFF" fill-rule="nonzero"></path><path d="M41.3396 11.411C 41.3396 11.411 41.2518 11.6713 41.1933 11.7295C 41.1348 11.7876 40.8728 11.8748 40.8728 11.8748C 40.8728 11.8748 41.1348 11.9621 41.1933 12.0188C 41.2518 12.077 41.3396 12.3373 41.3396 12.3373C 41.3396 12.3373 41.4274 12.077 41.4845 12.0188C 41.5417 11.9607 41.805 11.8748 41.805 11.8748C 41.805 11.8748 41.5417 11.7876 41.4845 11.7295C 41.426 11.6713 41.3396 11.411 41.3396 11.411z" stroke="none" fill="#FFFFFF" fill-rule="nonzero"></path><path d="M41.6852 4.1363C 41.6852 4.1363 41.7326 3.99923 41.7632 3.96738C 41.7939 3.93692 41.9332 3.88985 41.9332 3.88985C 41.9332 3.88985 41.7939 3.84416 41.7632 3.81369C 41.7326 3.78323 41.6852 3.64478 41.6852 3.64478C 41.6852 3.64478 41.6378 3.78185 41.6085 3.81369C 41.5765 3.84416 41.4386 3.88985 41.4386 3.88985C 41.4386 3.88985 41.5765 3.93692 41.6085 3.96738C 41.6392 3.99784 41.6852 4.1363 41.6852 4.1363z" stroke="none" fill="#FFFFFF" fill-rule="nonzero"></path><path d="M41.6853 7.94263C 41.6853 7.94263 41.6212 8.1337 41.578 8.17662C 41.5348 8.21954 41.3439 8.28323 41.3439 8.28323C 41.3439 8.28323 41.5362 8.34831 41.578 8.38985C 41.6212 8.43277 41.6853 8.62384 41.6853 8.62384C 41.6853 8.62384 41.7507 8.43277 41.7925 8.38985C 41.8357 8.34831 42.028 8.28323 42.028 8.28323C 42.028 8.28323 41.8357 8.21954 41.7925 8.17662C 41.7507 8.1337 41.6853 7.94263 41.6853 7.94263z" stroke="none" fill="#FFFFFF" fill-rule="nonzero"></path><path d="M44.4163 11.0343C 44.4163 11.0343 44.3689 11.1714 44.3382 11.2032C 44.3076 11.2337 44.1682 11.2808 44.1682 11.2808C 44.1682 11.2808 44.309 11.3278 44.3382 11.3583C 44.3689 11.3888 44.4163 11.5272 44.4163 11.5272C 44.4163 11.5272 44.4636 11.3901 44.4943 11.3583C 44.5249 11.3264 44.6643 11.2808 44.6643 11.2808C 44.6643 11.2808 44.5263 11.2337 44.4943 11.2032C 44.4636 11.1728 44.4163 11.0343 44.4163 11.0343z" stroke="none" fill="#FFFFFF" fill-rule="nonzero"></path><path d="M44.3327 3.89121C 44.3327 3.89121 44.44 3.57414 44.5097 3.50491C 44.5807 3.4343 44.8998 3.32769 44.8998 3.32769C 44.8998 3.32769 44.5807 3.22107 44.5097 3.15184C 44.4386 3.08123 44.3327 2.76416 44.3327 2.76416C 44.3327 2.76416 44.2254 3.08123 44.1543 3.15184C 44.0833 3.22246 43.7656 3.32769 43.7656 3.32769C 43.7656 3.32769 44.0847 3.4343 44.1543 3.50491C 44.2254 3.57553 44.3327 3.89121 44.3327 3.89121z" stroke="none" fill="#FFFFFF" fill-rule="nonzero"></path><path d="M45.0531 6.8848C 45.1241 6.95541 45.23 7.27248 45.23 7.27248C 45.23 7.27248 45.3373 6.95541 45.4084 6.8848C 45.4781 6.81418 45.7971 6.70895 45.7971 6.70895C 45.7971 6.70895 45.4781 6.60234 45.4084 6.53173C 45.3373 6.46111 45.23 6.14404 45.23 6.14404C 45.23 6.14404 45.1227 6.46111 45.0531 6.53173C 44.982 6.60234 44.6629 6.70895 44.6629 6.70895C 44.6629 6.70895 44.982 6.81557 45.0531 6.8848z" stroke="none" fill="#FFFFFF" fill-rule="nonzero"></path><path d="M47.355 4.44233C 47.355 4.44233 47.4023 4.30526 47.433 4.27341C 47.4637 4.24295 47.6016 4.19726 47.6016 4.19726C 47.6016 4.19726 47.4637 4.15019 47.433 4.11973C 47.4023 4.08926 47.355 3.95081 47.355 3.95081C 47.355 3.95081 47.3076 4.08788 47.2769 4.11973C 47.2463 4.15019 47.1069 4.19726 47.1069 4.19726C 47.1069 4.19726 47.2449 4.24295 47.2769 4.27341C 47.3076 4.30388 47.355 4.44233 47.355 4.44233z" stroke="none" fill="#FFFFFF" fill-rule="nonzero"></path><path d="M48.6927 16.0465C 48.6927 16.0465 48.6593 16.1462 48.63 16.1947L48.63 16.1947L48.7721 16.2154C 48.7401 16.185 48.6941 16.0465 48.6941 16.0465L48.6941 16.0465L48.6927 16.0465z" stroke="none" fill="#FFFFFF" fill-rule="nonzero"></path><path d="M48.9407 2.85695C 48.9407 2.85695 49.0466 2.53988 49.1191 2.46927C 49.1887 2.39866 49.5078 2.29343 49.5078 2.29343C 49.5078 2.29343 49.1887 2.18681 49.1191 2.1162C 49.0466 2.04559 48.9407 1.72852 48.9407 1.72852C 48.9407 1.72852 48.8334 2.04559 48.7623 2.1162C 48.6913 2.18681 48.3736 2.29343 48.3736 2.29343C 48.3736 2.29343 48.6927 2.40004 48.7623 2.46927C 48.8334 2.53988 48.9407 2.85695 48.9407 2.85695z" stroke="none" fill="#FFFFFF" fill-rule="nonzero"></path><path d="M48.1395 19.8168C 48.1395 19.8168 48.29 19.3696 48.3903 19.2699C 48.4906 19.1702 48.9393 19.0207 48.9393 19.0207C 48.9393 19.0207 48.4892 18.8712 48.3903 18.7715C 48.29 18.6718 48.1395 18.226 48.1395 18.226C 48.1395 18.226 47.989 18.6718 47.8887 18.7715C 47.7883 18.8712 47.3383 19.0207 47.3383 19.0207C 47.3383 19.0207 47.7883 19.1702 47.8887 19.2699C 47.989 19.3696 48.1395 19.8168 48.1395 19.8168z" stroke="none" fill="#FFFFFF" fill-rule="nonzero"></path><path d="M52.4325 10.7893C 52.4325 10.7893 52.3852 10.9264 52.3545 10.9582C 52.3239 10.9887 52.1845 11.0358 52.1845 11.0358C 52.1845 11.0358 52.3239 11.0828 52.3545 11.1133C 52.3866 11.1438 52.4325 11.2822 52.4325 11.2822C 52.4325 11.2822 52.4785 11.1438 52.5106 11.1133C 52.5412 11.0828 52.6792 11.0358 52.6792 11.0358C 52.6792 11.0358 52.5412 10.9887 52.5106 10.9582C 52.4785 10.9278 52.4325 10.7893 52.4325 10.7893z" stroke="none" fill="#FFFFFF" fill-rule="nonzero"></path><path d="M52.774 6.93042C 52.774 6.93042 52.7099 7.12149 52.6667 7.16441C 52.6249 7.20734 52.4326 7.27103 52.4326 7.27103C 52.4326 7.27103 52.6249 7.33472 52.6667 7.37764C 52.7099 7.41918 52.774 7.61025 52.774 7.61025C 52.774 7.61025 52.8394 7.41918 52.8812 7.37764C 52.923 7.3361 53.1167 7.27103 53.1167 7.27103C 53.1167 7.27103 52.9244 7.20734 52.8812 7.16441C 52.8394 7.12149 52.774 6.93042 52.774 6.93042z" stroke="none" fill="#FFFFFF" fill-rule="nonzero"></path><path d="M53.5557 1.23975C 53.5557 1.23975 53.5097 1.37682 53.4777 1.40867C 53.447 1.43913 53.3091 1.48482 53.3091 1.48482C 53.3091 1.48482 53.447 1.53189 53.4777 1.56235C 53.5097 1.59282 53.5557 1.73127 53.5557 1.73127C 53.5557 1.73127 53.6031 1.5942 53.6337 1.56235C 53.6644 1.53051 53.8037 1.48482 53.8037 1.48482C 53.8037 1.48482 53.6658 1.43913 53.6337 1.40867C 53.6031 1.3782 53.5557 1.23975 53.5557 1.23975z" stroke="none" fill="#FFFFFF" fill-rule="nonzero"></path><path d="M54.4042 19.4762C 54.4042 19.4762 54.3401 19.6673 54.2969 19.7102C 54.2551 19.7517 54.0628 19.8168 54.0628 19.8168C 54.0628 19.8168 54.2551 19.8805 54.2969 19.9234C 54.3401 19.9663 54.4042 20.1574 54.4042 20.1574C 54.4042 20.1574 54.4697 19.9663 54.5115 19.9234C 54.5547 19.8819 54.7456 19.8168 54.7456 19.8168C 54.7456 19.8168 54.5547 19.7517 54.5115 19.7102C 54.4697 19.6673 54.4042 19.4762 54.4042 19.4762z" stroke="none" fill="#FFFFFF" fill-rule="nonzero"></path><path d="M54.4042 10.0458C 54.4042 10.0458 54.4697 9.85473 54.5115 9.8118C 54.5547 9.77027 54.7456 9.70519 54.7456 9.70519C 54.7456 9.70519 54.5547 9.6415 54.5115 9.59858C 54.4697 9.55704 54.4042 9.36597 54.4042 9.36597C 54.4042 9.36597 54.3401 9.55704 54.2969 9.59858C 54.2551 9.6415 54.0628 9.70519 54.0628 9.70519C 54.0628 9.70519 54.2551 9.76888 54.2969 9.8118C 54.3401 9.85473 54.4042 10.0458 54.4042 10.0458z" stroke="none" fill="#FFFFFF" fill-rule="nonzero"></path><path d="M54.6523 13.9614C 54.6523 13.9614 54.6049 14.0985 54.5742 14.1303C 54.5436 14.1608 54.4042 14.2079 54.4042 14.2079C 54.4042 14.2079 54.5436 14.255 54.5742 14.2854C 54.6049 14.3159 54.6523 14.4543 54.6523 14.4543C 54.6523 14.4543 54.6996 14.3173 54.7303 14.2854C 54.761 14.255 54.8989 14.2079 54.8989 14.2079C 54.8989 14.2079 54.761 14.1608 54.7303 14.1303C 54.6996 14.0999 54.6523 13.9614 54.6523 13.9614z" stroke="none" fill="#FFFFFF" fill-rule="nonzero"></path><path d="M52.1247 10.1994L51.1758 7.82345C 51.1186 7.68915 51.0002 7.59638 50.8525 7.57146L50.8525 7.57146L49.9858 7.44546L50.2603 5.5735C 50.787 5.47242 51.1758 5.0612 51.2496 4.54614C 51.3472 3.876 50.8776 3.25016 50.2032 3.15324C 49.5329 3.05632 48.8989 3.52293 48.8014 4.19307C 48.7234 4.72059 49.0021 5.22043 49.4507 5.45581L49.4507 5.45581L49.1762 7.33192L48.3095 7.20593C 48.1618 7.181 48.0197 7.23777 47.9291 7.35269L47.9291 7.35269L46.4772 9.17619L44.1223 8.83558C 43.9788 8.81066 43.8325 8.87158 43.7419 8.9865L43.7419 8.9865L42.1479 10.9886C 42.0573 11.1022 42.0378 11.2572 42.0907 11.3901L42.0907 11.3901L43.0396 13.7661C 43.0968 13.9004 43.2152 13.9973 43.3629 14.0181L43.3629 14.0181L45.7178 14.3587L46.5803 16.5159C 46.6374 16.6502 46.7559 16.7471 46.9036 16.7679L46.9036 16.7679L49.1525 17.0933L50.0276 18.986C 49.6681 19.3349 49.5413 19.8832 49.7615 20.3664L49.7615 20.3664L48.4489 21.5364C 47.9584 21.2636 47.3982 21.3661 47.0304 21.6942C 46.519 22.1498 46.4828 22.9251 46.9356 23.4291C 47.3941 23.9373 48.1744 23.9774 48.6857 23.5219C 49.0857 23.1688 49.1888 22.6081 48.9965 22.1415L48.9965 22.1415L50.3244 20.9549C 50.6755 21.1335 51.0685 21.1335 51.4043 20.9798C 52.0258 20.6959 52.2961 19.9649 52.009 19.3474C 51.7847 18.8641 51.2775 18.5955 50.7703 18.6454L50.7703 18.6454L49.9356 16.8496L51.4196 14.9804C 51.5102 14.8668 51.5339 14.7118 51.4809 14.5788L51.4809 14.5788L50.6142 12.4217L52.0662 10.6023C 52.1567 10.4888 52.1762 10.3337 52.1233 10.2008L52.1233 10.2008L52.1247 10.1994zM43.7154 13.2455L42.9393 11.3085L44.2394 9.67187L46.3197 9.97233L47.0959 11.9094L45.7916 13.5459L43.7154 13.2455zM50.6323 14.6592L49.3323 16.2957L48.7721 16.214C 48.8042 16.2445 48.9407 16.2902 48.9407 16.2902C 48.9407 16.2902 48.8028 16.3373 48.7707 16.3677C 48.7387 16.3982 48.6927 16.5367 48.6927 16.5367C 48.6927 16.5367 48.6453 16.3996 48.6147 16.3677C 48.584 16.3359 48.4447 16.2902 48.4447 16.2902C 48.4447 16.2902 48.5826 16.2445 48.6147 16.214C 48.6189 16.2099 48.6244 16.203 48.6286 16.1947L48.6286 16.1947L47.2533 15.9953L46.4772 14.0582L47.7772 12.4217L49.8576 12.7221L50.6296 14.6592L50.6323 14.6592zM49.9774 11.9177L47.8971 11.6172L47.1209 9.68018L48.4252 8.0436C 48.5436 8.06022 50.5014 8.34406 50.5014 8.34406L50.5014 8.34406L51.2775 10.2811L49.9774 11.9177z" stroke="none" fill="#FFFFFF" fill-rule="nonzero"></path><path d="M48.6161 16.2141C 48.5854 16.2446 48.4461 16.2903 48.4461 16.2903C 48.4461 16.2903 48.584 16.3374 48.6161 16.3678C 48.6481 16.3983 48.6941 16.5367 48.6941 16.5367C 48.6941 16.5367 48.7401 16.3997 48.7721 16.3678C 48.8028 16.3374 48.9421 16.2903 48.9421 16.2903C 48.9421 16.2903 48.8056 16.246 48.7735 16.2141L48.7735 16.2141L48.6314 16.1934C 48.6258 16.2017 48.6217 16.2086 48.6175 16.2127L48.6175 16.2127L48.6161 16.2141z" stroke="none" fill="#FFFFFF" fill-rule="nonzero"></path><path d="M29.7841 20.642C 29.8719 20.5547 29.8719 20.4135 29.7841 20.3263C 29.6963 20.2391 29.5542 20.2391 29.4664 20.3263C 29.3786 20.4135 29.3786 20.5547 29.4664 20.642C 29.5542 20.7292 29.6963 20.7292 29.7841 20.642z" stroke="none" fill="url(#4789)"></path><path d="M28.0353 19.5358C 28.1231 19.4485 28.1231 19.3073 28.0353 19.2201C 27.9475 19.1329 27.8054 19.1329 27.7176 19.2201C 27.6298 19.3073 27.6298 19.4485 27.7176 19.5358C 27.8054 19.623 27.9475 19.623 28.0353 19.5358z" stroke="none" fill="url(#5042)"></path><path d="M26.7631 8.06717C 26.887 8.06717 26.9875 7.96737 26.9875 7.84426C 26.9875 7.72114 26.887 7.62134 26.7631 7.62134C 26.6392 7.62134 26.5388 7.72114 26.5388 7.84426C 26.5388 7.96737 26.6392 8.06717 26.7631 8.06717z" stroke="none" fill="url(#5295)"></path><path d="M29.7841 17.7981C 29.8719 17.7109 29.8719 17.5696 29.7841 17.4824C 29.6963 17.3952 29.5542 17.3952 29.4664 17.4824C 29.3786 17.5696 29.3786 17.7109 29.4664 17.7981C 29.5542 17.8853 29.6963 17.8853 29.7841 17.7981z" stroke="none" fill="url(#5548)"></path><path d="M26.8287 20.0425C 26.8287 20.5741 27.0363 21.0726 27.4153 21.4478C 28.1956 22.2232 29.465 22.2232 30.2453 21.4478C 30.6229 21.0726 30.8319 20.5728 30.8319 20.0425L30.8319 20.0425L30.8319 14.5457L26.8301 18.5222L26.8301 20.0411L26.8287 20.0425zM29.1473 17.1667C 29.4107 16.905 29.8384 16.905 30.1018 17.1667C 30.3652 17.4284 30.3652 17.8534 30.1018 18.1151C 29.8384 18.3768 29.4107 18.3768 29.1473 18.1151C 28.884 17.8534 28.884 17.4284 29.1473 17.1667zM29.1473 20.0106C 29.4107 19.7489 29.8384 19.7489 30.1018 20.0106C 30.3652 20.2723 30.3652 20.6974 30.1018 20.9591C 29.8384 21.2207 29.4107 21.2207 29.1473 20.9591C 28.884 20.6974 28.884 20.2723 29.1473 20.0106zM27.3986 18.9043C 27.6619 18.6426 28.0897 18.6426 28.3531 18.9043C 28.6164 19.166 28.6164 19.5911 28.3531 19.8528C 28.0897 20.1145 27.6619 20.1145 27.3986 19.8528C 27.1352 19.5911 27.1352 19.166 27.3986 18.9043z" stroke="none" fill="url(#5802)"></path><path d="M19.8658 25.3191L37.1357 25.3191L37.1357 0.18335L19.8658 0.18335L19.8658 25.3191zM21.4111 18.5886C 21.3693 18.5886 21.3358 18.554 21.3358 18.5139C 21.3358 18.4737 21.3706 18.4377 21.4111 18.4377C 21.4515 18.4377 21.4863 18.4723 21.4863 18.5139C 21.4863 18.5554 21.4529 18.5886 21.4111 18.5886zM21.7594 16.4218C 21.6159 16.4218 21.5002 16.3055 21.5002 16.1642C 21.5002 16.023 21.6173 15.9081 21.7594 15.9081C 21.9015 15.9081 22.0172 16.023 22.0172 16.1642C 22.0172 16.3055 21.9015 16.4218 21.7594 16.4218zM21.7594 13.834C 21.6061 13.834 21.4835 13.7108 21.4835 13.5612C 21.4835 13.4117 21.6075 13.2885 21.7594 13.2885C 21.9113 13.2885 22.0353 13.4117 22.0353 13.5612C 22.0353 13.7108 21.9113 13.834 21.7594 13.834zM25.8198 18.5886C 25.6972 18.5886 25.5969 18.4903 25.5969 18.3671C 25.5969 18.2439 25.6972 18.1456 25.8198 18.1456C 25.9424 18.1456 26.0441 18.2453 26.0441 18.3671C 26.0441 18.489 25.9438 18.5886 25.8198 18.5886zM31.9452 17.679C 31.8003 17.679 31.6819 17.5613 31.6819 17.4173C 31.6819 17.2733 31.7989 17.1556 31.9452 17.1556C 32.0916 17.1556 32.2086 17.2733 32.2086 17.4173C 32.2086 17.5613 32.0902 17.679 31.9452 17.679zM31.9466 14.5443C 31.7585 14.5443 31.6066 14.3934 31.6066 14.2064C 31.6066 14.0195 31.7599 13.8686 31.9466 13.8686C 32.1334 13.8686 32.2866 14.0195 32.2866 14.2064C 32.2866 14.3934 32.1347 14.5443 31.9466 14.5443zM34.9104 6.24645C 34.8185 6.24645 34.7432 6.17168 34.7432 6.0803C 34.7432 5.98892 34.8185 5.91415 34.9104 5.91415C 35.0024 5.91415 35.0776 5.98753 35.0776 6.0803C 35.0776 6.17307 35.0024 6.24645 34.9104 6.24645zM35.5946 13.2871C 35.6949 13.2871 35.7771 13.3674 35.7771 13.4684C 35.7771 13.5695 35.6949 13.6484 35.5946 13.6484C 35.4943 13.6484 35.4121 13.5668 35.4121 13.4684C 35.4121 13.3701 35.4943 13.2871 35.5946 13.2871zM35.674 16.7596C 35.8203 16.7596 35.9388 16.8773 35.9388 17.0213C 35.9388 17.1653 35.8203 17.283 35.674 17.283C 35.5277 17.283 35.4107 17.1653 35.4107 17.0213C 35.4107 16.8773 35.5291 16.7596 35.674 16.7596zM34.6819 2.19792C 35.0177 2.19792 35.2894 2.4693 35.2894 2.8016C 35.2894 3.1339 35.0177 3.40667 34.6819 3.40667C 34.3461 3.40667 34.073 3.13667 34.073 2.8016C 34.073 2.46653 34.3461 2.19792 34.6819 2.19792zM34.073 9.23854C 34.19 9.23854 34.2862 9.33269 34.2862 9.45038C 34.2862 9.56807 34.19 9.66222 34.073 9.66222C 33.9559 9.66222 33.8598 9.56807 33.8598 9.45038C 33.8598 9.33269 33.9545 9.23854 34.073 9.23854zM33.3749 11.0357C 33.3749 11.177 33.2592 11.2919 33.1171 11.2919C 32.975 11.2919 32.8593 11.177 32.8593 11.0357C 32.8593 10.8945 32.975 10.7796 33.1171 10.7796C 33.2592 10.7796 33.3749 10.8945 33.3749 11.0357zM32.6447 5.58185C 32.8287 5.58185 32.9792 5.73138 32.9792 5.91415C 32.9792 6.09692 32.8287 6.24645 32.6447 6.24645C 32.4608 6.24645 32.3089 6.09692 32.3089 5.91415C 32.3089 5.73138 32.4594 5.58185 32.6447 5.58185zM31.7488 3.40667C 31.8575 3.40667 31.9466 3.49389 31.9466 3.60328C 31.9466 3.71266 31.8575 3.79989 31.7488 3.79989C 31.6401 3.79989 31.5509 3.71266 31.5509 3.60328C 31.5509 3.49389 31.6387 3.40667 31.7488 3.40667zM29.9429 6.26445C 30.2941 5.91553 30.864 5.91553 31.2151 6.26445C 31.5662 6.61337 31.5662 7.17966 31.2151 7.52858C 30.864 7.87749 30.2941 7.87749 29.9429 7.52858C 29.5918 7.17966 29.5918 6.61337 29.9429 6.26445zM28.6707 5.94876C 28.4074 6.21045 27.9796 6.21045 27.7162 5.94876C 27.4529 5.68708 27.4529 5.26201 27.7162 5.00032C 27.9796 4.73864 28.4074 4.73864 28.6707 5.00032C 28.9341 5.26201 28.9341 5.68708 28.6707 5.94876zM27.9016 1.50286C 28.1203 1.50286 28.2973 1.6787 28.2973 1.89608C 28.2973 2.11346 28.1203 2.2893 27.9016 2.2893C 27.6828 2.2893 27.5058 2.11346 27.5058 1.89608C 27.5058 1.6787 27.6828 1.50286 27.9016 1.50286zM27.2397 7.37073C 27.503 7.63242 27.503 8.05749 27.2397 8.31918C 26.9763 8.58086 26.5486 8.58086 26.2852 8.31918C 26.0219 8.05749 26.0219 7.63242 26.2852 7.37073C 26.5486 7.10905 26.9763 7.10905 27.2397 7.37073zM26.3326 6.00415C 26.3326 6.13707 26.2239 6.24507 26.0887 6.24507C 25.9536 6.24507 25.8449 6.13707 25.8449 6.00415C 25.8449 5.87123 25.9536 5.76185 26.0887 5.76185C 26.2239 5.76185 26.3326 5.86984 26.3326 6.00415zM25.8505 1.80608C 25.9591 1.80608 26.0483 1.89331 26.0483 2.0027C 26.0483 2.11208 25.9591 2.19931 25.8505 2.19931C 25.7418 2.19931 25.6526 2.11208 25.6526 2.0027C 25.6526 1.89331 25.7404 1.80608 25.8505 1.80608zM25.6219 9.60961C 25.785 9.44761 26.001 9.359 26.2309 9.359L26.2309 9.359L31.4283 9.359C 31.6582 9.359 31.8742 9.44761 32.0372 9.60961C 32.373 9.9433 32.373 10.4861 32.0372 10.8197C 31.8742 10.9817 31.6582 11.0703 31.4283 11.0703L31.4283 11.0703L31.2806 11.0703L31.2806 20.0425C 31.2806 20.6932 31.0256 21.3052 30.563 21.7649C 29.6071 22.7147 28.0521 22.7147 27.0976 21.7649C 26.635 21.3052 26.38 20.6932 26.38 20.0425L26.38 20.0425L26.38 11.0703L26.2323 11.0703C 26.0023 11.0703 25.7864 10.9817 25.6233 10.8197C 25.2875 10.4861 25.2875 9.9433 25.6233 9.60961L25.6233 9.60961L25.6219 9.60961zM24.726 12.5006C 24.8012 12.5006 24.8625 12.5615 24.8625 12.6363C 24.8625 12.7111 24.8012 12.772 24.726 12.772C 24.6507 12.772 24.588 12.7111 24.588 12.6363C 24.588 12.5615 24.6493 12.5006 24.726 12.5006zM24.7246 16.0202C 24.8751 16.0202 24.9977 16.1407 24.9977 16.2916C 24.9977 16.4425 24.8751 16.563 24.7246 16.563C 24.5741 16.563 24.4515 16.4425 24.4515 16.2916C 24.4515 16.1407 24.5741 16.0202 24.7246 16.0202zM23.8885 4.40357C 24.0223 4.40357 24.131 4.51156 24.131 4.64587C 24.131 4.78017 24.0223 4.88679 23.8885 4.88679C 23.7548 4.88679 23.6447 4.77879 23.6447 4.64587C 23.6447 4.51295 23.7534 4.40357 23.8885 4.40357zM23.3869 7.30427C 23.529 7.30427 23.6447 7.42058 23.6447 7.56042C 23.6447 7.70027 23.5276 7.81796 23.3869 7.81796C 23.2462 7.81796 23.1291 7.70165 23.1291 7.56042C 23.1291 7.41919 23.2448 7.30427 23.3869 7.30427zM23.3869 10.7796C 23.529 10.7796 23.6447 10.8945 23.6447 11.0357C 23.6447 11.177 23.5276 11.2919 23.3869 11.2919C 23.2462 11.2919 23.1291 11.177 23.1291 11.0357C 23.1291 10.8945 23.2448 10.7796 23.3869 10.7796zM23.1361 14.7215C 23.2072 14.7215 23.2657 14.7783 23.2657 14.8489C 23.2657 14.9195 23.2072 14.9763 23.1361 14.9763C 23.065 14.9763 23.0079 14.9195 23.0079 14.8489C 23.0079 14.7783 23.065 14.7215 23.1361 14.7215zM22.5509 3.61851C 22.6512 3.61851 22.732 3.7002 22.732 3.79989C 22.732 3.89958 22.6512 3.98127 22.5509 3.98127C 22.4505 3.98127 22.3683 3.90096 22.3683 3.79989C 22.3683 3.69881 22.4491 3.61851 22.5509 3.61851zM22.1635 10.0914C 22.307 10.0914 22.4213 10.2064 22.4213 10.3476C 22.4213 10.4888 22.3056 10.6037 22.1635 10.6037C 22.0214 10.6037 21.9057 10.4888 21.9057 10.3476C 21.9057 10.2064 22.0228 10.0914 22.1635 10.0914zM21.4835 6.12599C 21.7162 6.12599 21.9057 6.31291 21.9057 6.54552C 21.9057 6.77813 21.7176 6.96505 21.4835 6.96505C 21.2494 6.96505 21.0613 6.77813 21.0613 6.54552C 21.0613 6.31291 21.2494 6.12599 21.4835 6.12599z" stroke="none" fill="url(#6055)"></path><path d="M26.2308 10.6232L30.1017 10.6232L30.1017 11.0704L29.2197 11.0704C 29.2921 11.1119 29.3409 11.1895 29.3409 11.2781C 29.3409 11.411 29.2322 11.519 29.0971 11.519C 28.9619 11.519 28.8532 11.411 28.8532 11.2781C 28.8532 11.1895 28.902 11.1119 28.9744 11.0704L28.9744 11.0704L26.8286 11.0704L26.8286 11.5716L28.1941 11.5716L28.1941 12.0188L26.8286 12.0188L26.8286 12.5201L27.5573 12.5201L27.5573 12.9673L26.8286 12.9673L26.8286 13.4685L28.1941 13.4685L28.1941 13.9157L26.8286 13.9157L26.8286 14.4169L27.5573 14.4169L27.5573 14.8642L26.8286 14.8642L26.8286 15.3654L28.1941 15.3654L28.1941 15.8126L26.8286 15.8126L26.8286 16.3138L27.5573 16.3138L27.5573 16.761L26.8286 16.761L26.8286 17.8936L30.8305 13.9171L30.8305 10.6259L31.4282 10.6259C 31.5369 10.6259 31.6428 10.5816 31.7195 10.5069C 31.8797 10.3476 31.8797 10.0887 31.7195 9.9295C 31.6414 9.85196 31.5383 9.81042 31.4282 9.81042L31.4282 9.81042L26.2308 9.81042C 26.1221 9.81042 26.0162 9.85473 25.9396 9.93088C 25.7793 10.0901 25.7793 10.349 25.9396 10.5083C 26.0176 10.5858 26.1207 10.6273 26.2308 10.6273L26.2308 10.6273L26.2308 10.6232z" stroke="none" fill="url(#6308)"></path><path d="M28.0354 5.63172C 28.1232 5.71895 28.2653 5.71895 28.3531 5.63172C 28.4409 5.54449 28.4409 5.40326 28.3531 5.31603C 28.2653 5.2288 28.1232 5.2288 28.0354 5.31603C 27.9476 5.40326 27.9476 5.54449 28.0354 5.63172z" stroke="none" fill="url(#6561)"></path><path d="M30.8974 7.2129C 31.073 7.03844 31.073 6.7546 30.8974 6.58153C 30.7218 6.40707 30.4362 6.40707 30.262 6.58153C 30.0864 6.75598 30.0864 7.03983 30.262 7.2129C 30.4376 7.38736 30.7232 7.38736 30.8974 7.2129z" stroke="none" fill="url(#6814)"></path><path d="M11.6544 16.1002L11.6568 16.0978L11.6544 16.1002z" stroke="none" fill="#FFFFFF" fill-rule="nonzero"></path><path d="M3.40402 17.4824C 3.64926 17.8715 4.04359 18.1456 4.49506 18.2384C 4.80997 18.3173 5.13324 18.3547 5.45651 18.3505C 5.96232 18.3436 6.46673 18.2841 6.95861 18.1706C 7.4895 19.7891 8.33669 20.8179 9.30651 20.8179C 10.2763 20.8179 11.1235 19.7891 11.6544 18.1706C 12.1477 18.2827 12.6507 18.3436 13.1565 18.3505C 13.4812 18.3547 13.8044 18.3173 14.118 18.2384C 14.5694 18.1442 14.9638 17.8715 15.209 17.4824C 15.6995 16.635 15.216 15.3737 14.0497 14.0888C 15.1477 12.8787 15.641 11.6893 15.2856 10.8475C 15.2592 10.9361 15.1783 10.9998 15.0822 10.9998C 14.9651 10.9998 14.869 10.9056 14.869 10.7879C 14.869 10.6702 14.9638 10.5761 15.0822 10.5761C 15.1003 10.5761 15.117 10.5789 15.1338 10.583C 14.8871 10.2521 14.5276 10.0209 14.1193 9.93642C 13.4686 9.76334 12.6131 9.79519 11.6558 10.0043C 11.1249 8.38568 10.2777 7.35693 9.3079 7.35693C 8.33809 7.35693 7.49089 8.38568 6.96 10.0043C 6.00273 9.79519 5.14717 9.76334 4.49645 9.93642C 4.04499 10.0306 3.65065 10.3033 3.40541 10.6924C 2.91354 11.5398 3.39844 12.8025 4.56473 14.0874C 3.39844 15.3723 2.91354 16.635 3.40541 17.481L3.40541 17.481L3.40402 17.4824zM4.6121 17.805C 4.27629 17.7399 3.98228 17.5433 3.79556 17.2581C 3.41238 16.5963 3.86942 15.5301 4.87964 14.4169C 5.36873 14.9029 5.89822 15.3501 6.45977 15.7517C 6.52944 16.4232 6.65206 17.0864 6.82902 17.7372C 5.95675 17.9241 5.1848 17.9559 4.6121 17.8036L4.6121 17.8036L4.6121 17.805zM6.40821 15.1494C 5.98043 14.8226 5.57356 14.4682 5.19176 14.0888C 5.57356 13.7094 5.97904 13.355 6.40821 13.0282C 6.38452 13.373 6.37338 13.726 6.37338 14.0888C 6.37338 14.4516 6.38452 14.8046 6.40821 15.1494zM6.96 16.0978C 7.23868 16.282 7.52851 16.4606 7.83088 16.635C 8.14022 16.8123 8.44956 16.9757 8.7589 17.1266C 8.27538 17.326 7.77793 17.4949 7.27213 17.6306C 7.13418 17.1266 7.03107 16.6143 6.96 16.0978zM9.3079 20.3707C 8.55128 20.3707 7.86154 19.4624 7.40171 18.0639C 8.05383 17.8881 8.69201 17.661 9.3079 17.3855C 9.92518 17.661 10.562 17.8881 11.2141 18.0639C 10.7543 19.4624 10.0645 20.3707 9.3079 20.3707zM11.6544 16.0992C 11.5847 16.6157 11.4802 17.128 11.3437 17.6319C 10.8379 17.4963 10.3418 17.3273 9.8569 17.128C 10.1662 16.9757 10.4756 16.8123 10.7835 16.6364C 11.0845 16.4634 11.3757 16.2847 11.6544 16.1006L11.6544 16.1006L11.6544 16.0992zM14.8202 17.2595C 14.6335 17.5433 14.3395 17.7413 14.0037 17.8064C 13.431 17.9587 12.6591 17.9269 11.7868 17.7386C 11.9637 17.0878 12.0864 16.4232 12.156 15.7531C 12.719 15.3515 13.2471 14.9057 13.7376 14.4183C 14.7464 15.5315 15.2034 16.599 14.8202 17.2595zM12.2076 13.0282C 12.6368 13.3536 13.0436 13.708 13.424 14.0888C 13.0422 14.4682 12.6368 14.8226 12.2076 15.1494C 12.2313 14.8046 12.2424 14.4516 12.2424 14.0888C 12.2424 13.726 12.2313 13.373 12.2076 13.0282zM14.0037 10.3726C 14.3395 10.4376 14.6335 10.6342 14.8202 10.9195C 15.2034 11.5799 14.7464 12.6474 13.7362 13.7606C 13.2457 13.2733 12.7176 12.8274 12.1546 12.4259C 12.0864 11.7544 11.9623 11.0912 11.7854 10.4404C 12.6577 10.2535 13.431 10.2216 14.0037 10.3739L14.0037 10.3739L14.0037 10.3726zM11.6558 12.0798C 11.3771 11.8956 11.0873 11.717 10.7849 11.5425C 10.477 11.3653 10.1676 11.2019 9.8583 11.0496C 10.3418 10.8489 10.8379 10.6813 11.3437 10.5443C 11.4816 11.0482 11.5861 11.5605 11.6572 12.0784L11.6572 12.0784L11.6558 12.0798zM9.3079 7.80692C 10.0645 7.80692 10.7543 8.71521 11.2141 10.1136C 10.562 10.2909 9.92379 10.5179 9.3079 10.7935C 8.69201 10.5179 8.05383 10.2909 7.40171 10.1136C 7.86154 8.71521 8.55128 7.80692 9.3079 7.80692zM7.27073 10.547C 7.77654 10.6827 8.27259 10.8502 8.7575 11.0496C 8.44956 11.2019 8.14022 11.3653 7.83088 11.5425C 7.52991 11.7156 7.24008 11.8956 6.96 12.0798C 7.02967 11.5619 7.13418 11.051 7.27073 10.547zM8.05801 11.9316C 8.47185 11.6935 8.88988 11.4788 9.3079 11.2878C 9.72592 11.4788 10.1453 11.6935 10.5592 11.9316C 10.9688 12.167 11.3576 12.4162 11.7255 12.6737C 11.7687 13.1307 11.7937 13.6042 11.7937 14.0888C 11.7937 14.5734 11.7715 15.0469 11.7255 15.5038C 11.3576 15.7614 10.9688 16.0106 10.5592 16.246C 10.1453 16.4841 9.72592 16.6987 9.30929 16.8898C 8.89266 16.6987 8.47325 16.4841 8.0594 16.246C 7.64974 16.0106 7.26098 15.7614 6.89312 15.5038C 6.84992 15.0469 6.82623 14.5734 6.82623 14.0888C 6.82623 13.6042 6.84992 13.1307 6.89451 12.6737C 7.26098 12.4162 7.64974 12.167 8.0608 11.9316L8.0608 11.9316L8.05801 11.9316zM3.79556 10.9195C 3.98228 10.6356 4.27629 10.4376 4.6121 10.3726C 4.88661 10.3033 5.16807 10.2715 5.45094 10.2756C 5.91494 10.2826 6.37616 10.3366 6.82763 10.439C 6.65066 11.0898 6.52804 11.7544 6.45837 12.4245C 5.89544 12.826 5.36733 13.2719 4.87824 13.7593C 3.86802 12.6474 3.41098 11.5799 3.79417 10.9181L3.79417 10.9181L3.79556 10.9195z" stroke="none" fill="#FFFFFF" fill-rule="nonzero"></path><path d="M14.8703 10.7907C 14.8703 10.907 14.9651 11.0025 15.0835 11.0025C 15.1797 11.0025 15.2619 10.9374 15.287 10.8502C 15.2647 10.7976 15.2396 10.7464 15.2103 10.6965C 15.1866 10.6591 15.1602 10.6231 15.1337 10.5871C 15.117 10.583 15.1002 10.5802 15.0821 10.5802C 14.9651 10.5802 14.8689 10.6744 14.8689 10.792L14.8689 10.792L14.8703 10.7907z" stroke="none" fill="#FFFFFF" fill-rule="nonzero"></path><path d="M9.30793 15.6589C 10.1802 15.6589 10.8881 14.9555 10.8881 14.0888C 10.8881 13.222 10.1802 12.5187 9.30793 12.5187C 8.43566 12.5187 7.72781 13.222 7.72781 14.0888C 7.72781 14.9555 8.43566 15.6589 9.30793 15.6589zM9.30793 13.1916C 9.43195 13.1916 9.53367 13.2927 9.53367 13.4159C 9.53367 13.5391 9.43195 13.6402 9.30793 13.6402C 9.05851 13.6402 8.85647 13.841 8.85647 14.0888C 8.85647 14.212 8.75475 14.3131 8.63074 14.3131C 8.50672 14.3131 8.405 14.212 8.405 14.0888C 8.405 13.5931 8.80909 13.1916 9.30793 13.1916z" stroke="none" fill="#FFFFFF" fill-rule="nonzero"></path><path d="M9.75939 9.15405C 9.75939 8.90621 9.55735 8.70544 9.30793 8.70544C 9.05851 8.70544 8.85646 8.90621 8.85646 9.15405C 8.85646 9.40189 9.05851 9.60266 9.30793 9.60266C 9.55735 9.60266 9.75939 9.40189 9.75939 9.15405z" stroke="none" fill="#FFFFFF" fill-rule="nonzero"></path><path d="M3.21166 14.5373C 3.46108 14.5373 3.66313 14.3366 3.66313 14.0887C 3.66313 13.8409 3.46108 13.6401 3.21166 13.6401C 2.96224 13.6401 2.7602 13.8409 2.7602 14.0887C 2.7602 14.3366 2.96224 14.5373 3.21166 14.5373z" stroke="none" fill="#FFFFFF" fill-rule="nonzero"></path><path d="M15.4041 14.5373C 15.6534 14.5373 15.8555 14.3365 15.8555 14.0887C 15.8555 13.841 15.6534 13.6401 15.4041 13.6401C 15.1547 13.6401 14.9526 13.841 14.9526 14.0887C 14.9526 14.3365 15.1547 14.5373 15.4041 14.5373z" stroke="none" fill="#FFFFFF" fill-rule="nonzero"></path><path d="M5.01892 16.1074C 4.7695 16.1074 4.56746 16.3082 4.56746 16.556C 4.56746 16.8039 4.7695 17.0046 5.01892 17.0046C 5.26834 17.0046 5.47039 16.8039 5.47039 16.556C 5.47039 16.3082 5.26834 16.1074 5.01892 16.1074z" stroke="none" fill="#FFFFFF" fill-rule="nonzero"></path><path d="M26.2309 11.0704L26.3786 11.0704L26.3786 20.0425C 26.3786 20.6932 26.6336 21.3038 27.0962 21.7649C 28.052 22.7147 29.6071 22.7147 30.5616 21.7649C 31.0242 21.3052 31.2792 20.6932 31.2792 20.0425L31.2792 20.0425L31.2792 11.0704L31.4269 11.0704C 31.6568 11.0704 31.8728 10.9817 32.0358 10.8197C 32.3716 10.4861 32.3716 9.9433 32.0358 9.60962C 31.8728 9.44762 31.6568 9.35901 31.4269 9.35901L31.4269 9.35901L26.2295 9.35901C 25.9995 9.35901 25.7836 9.44762 25.6205 9.60962C 25.2847 9.9433 25.2847 10.4861 25.6205 10.8197C 25.7836 10.9817 25.9995 11.0704 26.2295 11.0704L26.2295 11.0704L26.2309 11.0704zM30.8305 20.0425C 30.8305 20.5728 30.6229 21.0726 30.2439 21.4478C 29.4636 22.2232 28.1942 22.2232 27.4139 21.4478C 27.0362 21.0726 26.8272 20.5728 26.8272 20.0425L26.8272 20.0425L26.8272 18.5236L30.8291 14.5471L30.8291 20.0439L30.8305 20.0425zM25.941 9.9253C 26.0177 9.84915 26.1236 9.80623 26.2322 9.80623L26.2322 9.80623L31.4297 9.80623C 31.5398 9.80623 31.6429 9.84915 31.7209 9.9253C 31.8811 10.0845 31.8811 10.3434 31.7209 10.5027C 31.6443 10.5788 31.5384 10.6218 31.4297 10.6218L31.4297 10.6218L30.8319 10.6218L30.8319 13.9129L26.83 17.8894L26.83 16.7569L27.5588 16.7569L27.5588 16.3096L26.83 16.3096L26.83 15.8084L28.1956 15.8084L28.1956 15.3612L26.83 15.3612L26.83 14.86L27.5588 14.86L27.5588 14.4127L26.83 14.4127L26.83 13.9115L28.1956 13.9115L28.1956 13.4643L26.83 13.4643L26.83 12.9631L27.5588 12.9631L27.5588 12.5159L26.83 12.5159L26.83 12.0146L28.1956 12.0146L28.1956 11.5674L26.83 11.5674L26.83 11.0662L28.9759 11.0662C 29.0121 11.0454 29.0539 11.0316 29.0985 11.0316C 29.1431 11.0316 29.1849 11.044 29.2211 11.0662L29.2211 11.0662L30.1031 11.0662L30.1031 10.619L26.2322 10.619C 26.1222 10.619 26.0191 10.5761 25.941 10.4999C 25.7808 10.3407 25.7808 10.0818 25.941 9.92254L25.941 9.92254L25.941 9.9253z" stroke="none" fill="#FFFFFF" fill-rule="nonzero"></path><path d="M31.2151 7.52862C 31.5663 7.17971 31.5663 6.61341 31.2151 6.26449C 30.864 5.91558 30.2941 5.91558 29.943 6.26449C 29.5918 6.61341 29.5918 7.17971 29.943 7.52862C 30.2941 7.87754 30.864 7.87754 31.2151 7.52862zM30.2607 6.58018C 30.4362 6.40572 30.7219 6.40572 30.8961 6.58018C 31.0716 6.75464 31.0716 7.03848 30.8961 7.21155C 30.7205 7.38601 30.4348 7.38601 30.2607 7.21155C 30.0851 7.03709 30.0851 6.75325 30.2607 6.58018z" stroke="none" fill="#FFFFFF" fill-rule="nonzero"></path><path d="M26.2852 8.3178C 26.5485 8.57949 26.9763 8.57949 27.2397 8.3178C 27.503 8.05612 27.503 7.63105 27.2397 7.36936C 26.9763 7.10767 26.5485 7.10767 26.2852 7.36936C 26.0218 7.63105 26.0218 8.05612 26.2852 8.3178zM26.6043 7.68643C 26.6921 7.5992 26.8342 7.5992 26.922 7.68643C 27.0098 7.77366 27.0098 7.91489 26.922 8.00212C 26.8342 8.08935 26.6921 8.08935 26.6043 8.00212C 26.5165 7.91489 26.5165 7.77366 26.6043 7.68643z" stroke="none" fill="#FFFFFF" fill-rule="nonzero"></path><path d="M27.7162 5.00034C 27.4529 5.26203 27.4529 5.6871 27.7162 5.94878C 27.9796 6.21047 28.4073 6.21047 28.6707 5.94878C 28.9341 5.6871 28.9341 5.26203 28.6707 5.00034C 28.4073 4.73866 27.9796 4.73866 27.7162 5.00034zM28.353 5.31603C 28.4408 5.40326 28.4408 5.54448 28.353 5.63171C 28.2652 5.71894 28.1231 5.71894 28.0353 5.63171C 27.9475 5.54448 27.9475 5.40326 28.0353 5.31603C 28.1231 5.2288 28.2652 5.2288 28.353 5.31603z" stroke="none" fill="#FFFFFF" fill-rule="nonzero"></path><path d="M28.353 19.8528C 28.6164 19.5911 28.6164 19.1661 28.353 18.9044C 28.0897 18.6427 27.6619 18.6427 27.3986 18.9044C 27.1352 19.1661 27.1352 19.5911 27.3986 19.8528C 27.6619 20.1145 28.0897 20.1145 28.353 19.8528zM27.7163 19.2201C 27.804 19.1329 27.9462 19.1329 28.034 19.2201C 28.1217 19.3073 28.1217 19.4485 28.034 19.5358C 27.9462 19.623 27.804 19.623 27.7163 19.5358C 27.6285 19.4485 27.6285 19.3073 27.7163 19.2201z" stroke="none" fill="#FFFFFF" fill-rule="nonzero"></path><path d="M30.1017 18.1137C 30.3651 17.852 30.3651 17.4269 30.1017 17.1653C 29.8384 16.9036 29.4106 16.9036 29.1473 17.1653C 28.8839 17.4269 28.8839 17.852 29.1473 18.1137C 29.4106 18.3754 29.8384 18.3754 30.1017 18.1137zM29.4663 17.4823C 29.5541 17.3951 29.6963 17.3951 29.784 17.4823C 29.8718 17.5696 29.8718 17.7108 29.784 17.798C 29.6963 17.8852 29.5541 17.8852 29.4663 17.798C 29.3786 17.7108 29.3786 17.5696 29.4663 17.4823z" stroke="none" fill="#FFFFFF" fill-rule="nonzero"></path><path d="M30.1017 20.9577C 30.3651 20.696 30.3651 20.2709 30.1017 20.0093C 29.8384 19.7476 29.4106 19.7476 29.1473 20.0093C 28.8839 20.2709 28.8839 20.696 29.1473 20.9577C 29.4106 21.2194 29.8384 21.2194 30.1017 20.9577zM29.4663 20.3263C 29.5541 20.2391 29.6963 20.2391 29.784 20.3263C 29.8718 20.4136 29.8718 20.5548 29.784 20.642C 29.6963 20.7292 29.5541 20.7292 29.4663 20.642C 29.3786 20.5548 29.3786 20.4136 29.4663 20.3263z" stroke="none" fill="#FFFFFF" fill-rule="nonzero"></path><path d="M21.4111 18.4364C 21.3693 18.4364 21.3358 18.471 21.3358 18.5126C 21.3358 18.5541 21.3707 18.5873 21.4111 18.5873C 21.4515 18.5873 21.4863 18.5527 21.4863 18.5126C 21.4863 18.4724 21.4529 18.4364 21.4111 18.4364z" stroke="none" fill="#FFFFFF" fill-rule="nonzero"></path><path d="M21.4836 6.96504C 21.7163 6.96504 21.9058 6.77812 21.9058 6.54551C 21.9058 6.3129 21.7176 6.12598 21.4836 6.12598C 21.2495 6.12598 21.0613 6.3129 21.0613 6.54551C 21.0613 6.77812 21.2495 6.96504 21.4836 6.96504z" stroke="none" fill="#FFFFFF" fill-rule="nonzero"></path><path d="M21.7594 15.9081C 21.6159 15.9081 21.5003 16.023 21.5003 16.1642C 21.5003 16.3055 21.6173 16.4218 21.7594 16.4218C 21.9016 16.4218 22.0172 16.3055 22.0172 16.1642C 22.0172 16.023 21.9016 15.9081 21.7594 15.9081z" stroke="none" fill="#FFFFFF" fill-rule="nonzero"></path><path d="M21.7594 13.2871C 21.6061 13.2871 21.4835 13.4103 21.4835 13.5599C 21.4835 13.7094 21.6075 13.8326 21.7594 13.8326C 21.9113 13.8326 22.0353 13.7094 22.0353 13.5599C 22.0353 13.4103 21.9113 13.2871 21.7594 13.2871z" stroke="none" fill="#FFFFFF" fill-rule="nonzero"></path><path d="M22.1635 10.6051C 22.307 10.6051 22.4212 10.4901 22.4212 10.3489C 22.4212 10.2077 22.3056 10.0928 22.1635 10.0928C 22.0213 10.0928 21.9057 10.2077 21.9057 10.3489C 21.9057 10.4901 22.0227 10.6051 22.1635 10.6051z" stroke="none" fill="#FFFFFF" fill-rule="nonzero"></path><path d="M22.5509 3.98129C 22.6512 3.98129 22.732 3.90099 22.732 3.79991C 22.732 3.69884 22.6512 3.61853 22.5509 3.61853C 22.4506 3.61853 22.3684 3.70022 22.3684 3.79991C 22.3684 3.8996 22.4492 3.98129 22.5509 3.98129z" stroke="none" fill="#FFFFFF" fill-rule="nonzero"></path><path d="M23.1361 14.9777C 23.2072 14.9777 23.2657 14.9209 23.2657 14.8503C 23.2657 14.7797 23.2072 14.7229 23.1361 14.7229C 23.065 14.7229 23.0079 14.7797 23.0079 14.8503C 23.0079 14.9209 23.065 14.9777 23.1361 14.9777z" stroke="none" fill="#FFFFFF" fill-rule="nonzero"></path><path d="M23.3869 11.2918C 23.5291 11.2918 23.6447 11.1769 23.6447 11.0357C 23.6447 10.8945 23.5277 10.7795 23.3869 10.7795C 23.2462 10.7795 23.1292 10.8945 23.1292 11.0357C 23.1292 11.1769 23.2448 11.2918 23.3869 11.2918z" stroke="none" fill="#FFFFFF" fill-rule="nonzero"></path><path d="M23.3869 7.818C 23.5291 7.818 23.6447 7.7017 23.6447 7.56047C 23.6447 7.41924 23.5277 7.30432 23.3869 7.30432C 23.2462 7.30432 23.1292 7.42063 23.1292 7.56047C 23.1292 7.70031 23.2448 7.818 23.3869 7.818z" stroke="none" fill="#FFFFFF" fill-rule="nonzero"></path><path d="M23.8885 4.88679C 24.0223 4.88679 24.131 4.77879 24.131 4.64587C 24.131 4.51295 24.0223 4.40356 23.8885 4.40356C 23.7548 4.40356 23.6447 4.51156 23.6447 4.64587C 23.6447 4.78017 23.7534 4.88679 23.8885 4.88679z" stroke="none" fill="#FFFFFF" fill-rule="nonzero"></path><path d="M24.726 12.772C 24.8013 12.772 24.8626 12.7111 24.8626 12.6363C 24.8626 12.5615 24.8013 12.5006 24.726 12.5006C 24.6508 12.5006 24.5881 12.5615 24.5881 12.6363C 24.5881 12.7111 24.6494 12.772 24.726 12.772z" stroke="none" fill="#FFFFFF" fill-rule="nonzero"></path><path d="M25.8505 2.19791C 25.9592 2.19791 26.0483 2.11068 26.0483 2.0013C 26.0483 1.89192 25.9592 1.80469 25.8505 1.80469C 25.7418 1.80469 25.6526 1.89192 25.6526 2.0013C 25.6526 2.11068 25.7404 2.19791 25.8505 2.19791z" stroke="none" fill="#FFFFFF" fill-rule="nonzero"></path><path d="M25.8449 6.00414C 25.8449 6.13706 25.9536 6.24506 26.0887 6.24506C 26.2239 6.24506 26.3326 6.13706 26.3326 6.00414C 26.3326 5.87122 26.2239 5.76184 26.0887 5.76184C 25.9536 5.76184 25.8449 5.86984 25.8449 6.00414z" stroke="none" fill="#FFFFFF" fill-rule="nonzero"></path><path d="M27.9015 2.28925C 28.1203 2.28925 28.2973 2.11341 28.2973 1.89603C 28.2973 1.67865 28.1203 1.50281 27.9015 1.50281C 27.6828 1.50281 27.5058 1.67865 27.5058 1.89603C 27.5058 2.11341 27.6828 2.28925 27.9015 2.28925z" stroke="none" fill="#FFFFFF" fill-rule="nonzero"></path><path d="M31.7487 3.79984C 31.8574 3.79984 31.9466 3.71261 31.9466 3.60323C 31.9466 3.49385 31.8574 3.40662 31.7487 3.40662C 31.6401 3.40662 31.5509 3.49385 31.5509 3.60323C 31.5509 3.71261 31.6387 3.79984 31.7487 3.79984z" stroke="none" fill="#FFFFFF" fill-rule="nonzero"></path><path d="M32.6447 6.24639C 32.8286 6.24639 32.9791 6.09685 32.9791 5.91409C 32.9791 5.73132 32.8286 5.58179 32.6447 5.58179C 32.4608 5.58179 32.3089 5.73132 32.3089 5.91409C 32.3089 6.09685 32.4594 6.24639 32.6447 6.24639z" stroke="none" fill="#FFFFFF" fill-rule="nonzero"></path><path d="M32.8579 11.0357C 32.8579 11.1769 32.9735 11.2918 33.1157 11.2918C 33.2578 11.2918 33.3734 11.1769 33.3734 11.0357C 33.3734 10.8945 33.2578 10.7795 33.1157 10.7795C 32.9735 10.7795 32.8579 10.8945 32.8579 11.0357z" stroke="none" fill="#FFFFFF" fill-rule="nonzero"></path><path d="M25.8198 18.1456C 25.6972 18.1456 25.5968 18.2453 25.5968 18.3672C 25.5968 18.489 25.6972 18.5887 25.8198 18.5887C 25.9424 18.5887 26.0441 18.4904 26.0441 18.3672C 26.0441 18.2439 25.9438 18.1456 25.8198 18.1456z" stroke="none" fill="#FFFFFF" fill-rule="nonzero"></path><path d="M31.9453 17.1556C 31.8004 17.1556 31.6819 17.2733 31.6819 17.4173C 31.6819 17.5613 31.799 17.679 31.9453 17.679C 32.0916 17.679 32.2087 17.5613 32.2087 17.4173C 32.2087 17.2733 32.0902 17.1556 31.9453 17.1556z" stroke="none" fill="#FFFFFF" fill-rule="nonzero"></path><path d="M24.7246 16.5616C 24.875 16.5616 24.9977 16.4411 24.9977 16.2902C 24.9977 16.1393 24.875 16.0188 24.7246 16.0188C 24.5741 16.0188 24.4514 16.1393 24.4514 16.2902C 24.4514 16.4411 24.5741 16.5616 24.7246 16.5616z" stroke="none" fill="#FFFFFF" fill-rule="nonzero"></path><path d="M28.8547 11.278C 28.8547 11.4109 28.9647 11.5189 29.0985 11.5189C 29.2323 11.5189 29.3424 11.4109 29.3424 11.278C 29.3424 11.1894 29.2936 11.1119 29.2211 11.0703L29.2211 11.0703L28.9759 11.0703C 28.9034 11.1119 28.8547 11.1894 28.8547 11.278z" stroke="none" fill="#FFFFFF" fill-rule="nonzero"></path><path d="M29.0971 11.0358C 29.0525 11.0358 29.0107 11.0482 28.9744 11.0704L28.9744 11.0704L29.2197 11.0704C 29.1835 11.0496 29.1417 11.0358 29.0971 11.0358z" stroke="none" fill="#FFFFFF" fill-rule="nonzero"></path><path d="M31.9466 13.8687C 31.7585 13.8687 31.6067 14.0196 31.6067 14.2065C 31.6067 14.3934 31.7599 14.5443 31.9466 14.5443C 32.1334 14.5443 32.2866 14.3934 32.2866 14.2065C 32.2866 14.0196 32.1348 13.8687 31.9466 13.8687z" stroke="none" fill="#FFFFFF" fill-rule="nonzero"></path><path d="M34.073 9.66087C 34.1901 9.66087 34.2862 9.56671 34.2862 9.44902C 34.2862 9.33133 34.1901 9.23718 34.073 9.23718C 33.956 9.23718 33.8598 9.33133 33.8598 9.44902C 33.8598 9.56671 33.9546 9.66087 34.073 9.66087z" stroke="none" fill="#FFFFFF" fill-rule="nonzero"></path><path d="M34.9104 5.91418C 34.8185 5.91418 34.7432 5.98757 34.7432 6.08033C 34.7432 6.1731 34.8185 6.24649 34.9104 6.24649C 35.0024 6.24649 35.0776 6.17172 35.0776 6.08033C 35.0776 5.98895 35.0024 5.91418 34.9104 5.91418z" stroke="none" fill="#FFFFFF" fill-rule="nonzero"></path><path d="M34.6819 3.40662C 35.0177 3.40662 35.2894 3.13663 35.2894 2.80156C 35.2894 2.46649 35.0177 2.19788 34.6819 2.19788C 34.3461 2.19788 34.073 2.46925 34.073 2.80156C 34.073 3.13386 34.3461 3.40662 34.6819 3.40662z" stroke="none" fill="#FFFFFF" fill-rule="nonzero"></path><path d="M35.5945 13.6485C 35.6949 13.6485 35.7771 13.5668 35.7771 13.4685C 35.7771 13.3702 35.6949 13.2871 35.5945 13.2871C 35.4942 13.2871 35.412 13.3674 35.412 13.4685C 35.412 13.5696 35.4942 13.6485 35.5945 13.6485z" stroke="none" fill="#FFFFFF" fill-rule="nonzero"></path><path d="M35.674 17.2844C 35.8203 17.2844 35.9388 17.1667 35.9388 17.0227C 35.9388 16.8787 35.8203 16.761 35.674 16.761C 35.5277 16.761 35.4107 16.8787 35.4107 17.0227C 35.4107 17.1667 35.5291 17.2844 35.674 17.2844z" stroke="none" fill="#FFFFFF" fill-rule="nonzero"></path></g></svg>