<svg xmlns="http://www.w3.org/2000/svg" width="62" height="61" viewBox="0 0 62 61" fill="none"><g id="Icon" clip-path="url(#clip0_81_215)"><path id="Vector" d="M18.4966 11.2005C18.3617 10.9307 18.1257 10.7621 17.7885 10.6947C17.4513 10.6273 17.1478 10.661 16.8781 10.7959C16.6083 11.0656 16.406 11.3354 16.2712 11.6051C16.1363 11.8749 16.17 12.1783 16.3723 12.5155C16.5746 12.8527 16.8444 13.0213 17.1816 13.0213C17.5187 13.0213 17.8222 12.9538 18.092 12.819C18.3617 12.6841 18.5303 12.4481 18.5977 12.1109C18.6652 11.7737 18.6315 11.4702 18.4966 11.2005ZM60.7795 20.5068L31.6468 2.50113C31.2421 2.23138 30.8375 2.23138 30.4329 2.50113L20.722 8.57045C20.3174 8.70532 20.0813 8.94135 20.0139 9.27853C19.9465 9.61572 20.0139 9.91918 20.2162 10.1889C20.4185 10.4587 20.6883 10.6273 21.0255 10.6947C21.3626 10.7621 21.6661 10.7284 21.9359 10.5936L31.0398 4.92885L57.9472 21.5183L31.0398 38.1078L16.4735 29.2061L28.8144 21.9229C29.4888 22.4624 30.2643 22.7322 31.141 22.7322C32.0177 22.7322 32.8269 22.3613 33.5687 21.6195C34.3105 20.8777 34.6814 20.0347 34.6814 19.0906C34.6814 18.1465 34.3105 17.3372 33.5687 16.6629C32.8269 15.9885 31.984 15.6513 31.0398 15.6513C30.0957 15.6513 29.2528 15.9885 28.511 16.6629C27.7691 17.3372 27.3982 18.1465 27.3982 19.0906L27.6006 19.8998L14.2481 27.79L4.13252 21.5183L13.4388 15.6513C13.7086 15.5164 13.8771 15.2804 13.9446 14.9432C14.012 14.606 13.9783 14.3026 13.8434 14.0328C13.7086 13.7631 13.4725 13.5945 13.1353 13.5271C12.7982 13.4596 12.4947 13.4933 12.2249 13.6282L1.30017 20.5068C0.895548 20.7765 0.693237 21.1137 0.693237 21.5183C0.693237 21.9229 0.895548 22.2601 1.30017 22.5299L12.0226 29.0038L10.6065 29.8131C9.52747 30.4874 8.68451 31.3641 8.07758 32.4431C7.47064 33.5221 7.16718 34.6685 7.16718 35.8824V37.9055C6.49281 38.1752 5.9196 38.5799 5.44754 39.1194C4.97548 39.6588 4.73945 40.3332 4.73945 41.1425V43.1656C3.79533 44.1097 3.32328 45.3235 3.32328 46.8072V57.7319C3.32328 58.1366 3.42443 58.44 3.62674 58.6423C3.82905 58.8446 4.13252 58.9458 4.53714 58.9458H12.0226C12.4273 58.9458 12.7307 58.8446 12.933 58.6423C13.1353 58.44 13.2365 58.1366 13.2365 57.7319V46.8072C13.2365 45.3235 12.7644 44.1097 11.8203 43.1656V41.1425C11.8203 40.3332 11.5843 39.6588 11.1122 39.1194C10.6402 38.5799 10.067 38.1752 9.3926 37.9055V35.8824C9.3926 35.0731 9.59491 34.3313 9.99953 33.657C10.4042 32.9826 11.0111 32.4431 11.8203 32.0385L13.2365 31.0269V42.5586C13.2365 42.8284 13.3714 43.0981 13.6411 43.3679C13.9109 43.6376 14.1806 43.7725 14.4504 43.7725C17.4176 43.7725 20.2499 44.3457 22.9474 45.4921C25.6449 46.6386 28.0726 48.2908 30.2306 50.4488C30.5003 50.5836 30.7701 50.6511 31.0398 50.6511C31.3096 50.6511 31.5793 50.5836 31.8491 50.4488C34.0071 48.2908 36.4348 46.6386 39.1323 45.4921C41.8297 44.3457 44.6621 43.7725 47.6293 43.7725C47.8991 43.7725 48.1688 43.6376 48.4386 43.3679C48.7083 43.0981 48.8432 42.8284 48.8432 42.5586V40.5355C48.8432 40.1309 48.7083 39.8274 48.4386 39.6251C48.1688 39.4228 47.8991 39.3217 47.6293 39.3217C47.3596 39.3217 47.0898 39.4228 46.8201 39.6251C46.5503 39.8274 46.4155 40.1309 46.4155 40.5355V41.3448C41.1554 41.6145 36.4348 43.4353 32.2537 46.8072V44.3794C32.2537 44.1097 32.1188 43.8399 31.8491 43.5702C31.5793 43.3004 31.3096 43.1656 31.0398 43.1656C30.7701 43.1656 30.5003 43.3004 30.2306 43.5702C29.9608 43.8399 29.826 44.1097 29.826 44.3794V46.8072C25.6449 43.4353 20.9243 41.6145 15.6642 41.3448V31.4316L30.4329 40.5355C30.5678 40.6704 30.7701 40.7378 31.0398 40.7378C31.3096 40.7378 31.5119 40.6704 31.6468 40.5355L46.4155 31.4316V32.6454C46.4155 33.05 46.5503 33.3535 46.8201 33.5558C47.0898 33.7581 47.3596 33.8593 47.6293 33.8593C47.8991 33.8593 48.1688 33.7581 48.4386 33.5558C48.7083 33.3535 48.8432 33.05 48.8432 32.6454V30.0154L60.7795 22.5299C61.1841 22.2601 61.3864 21.9229 61.3864 21.5183C61.3864 21.1137 61.1841 20.7765 60.7795 20.5068ZM31.0398 17.8767C31.3096 17.8767 31.5793 18.0116 31.8491 18.2814C32.1188 18.5511 32.2537 18.8546 32.2537 19.1918C32.2537 19.5289 32.1188 19.7987 31.8491 20.001C31.5793 20.2033 31.3096 20.3045 31.0398 20.3045C30.7701 20.3045 30.5003 20.2033 30.2306 20.001C29.9608 19.7987 29.826 19.5289 29.826 19.1918C29.826 18.8546 29.9608 18.5511 30.2306 18.2814C30.5003 18.0116 30.7701 17.8767 31.0398 17.8767ZM7.16718 41.1425C7.16718 40.8727 7.26833 40.603 7.47064 40.3332C7.67296 40.0635 7.9427 39.9286 8.27989 39.9286C8.61707 39.9286 8.88682 40.0635 9.08913 40.3332C9.29144 40.603 9.3926 40.8727 9.3926 41.1425V41.7494H7.16718V41.1425ZM10.8088 46.8072V56.5181H5.751V46.8072C5.751 45.9979 5.98703 45.3573 6.45909 44.8852C6.93115 44.4132 7.53808 44.1771 8.27989 44.1771C9.02169 44.1771 9.62863 44.4132 10.1007 44.8852C10.5727 45.3573 10.8088 45.9979 10.8088 46.8072ZM48.4386 35.4778C48.1688 35.208 47.8991 35.0731 47.6293 35.0731C47.3596 35.0731 47.0898 35.208 46.8201 35.4778C46.5503 35.7475 46.4155 36.051 46.4155 36.3882C46.4155 36.7253 46.5503 36.9951 46.8201 37.1974C47.0898 37.3997 47.3596 37.5009 47.6293 37.5009C47.8991 37.5009 48.1688 37.3997 48.4386 37.1974C48.7083 36.9951 48.8432 36.7253 48.8432 36.3882C48.8432 36.051 48.7083 35.7475 48.4386 35.4778Z" fill="white"></path></g><defs><clipPath id="clip0_81_215"><rect width="60.6932" height="60.6932" fill="white" transform="matrix(1 0 0 -1 0.693237 60.969)"></rect></clipPath></defs></svg>