<svg xmlns="http://www.w3.org/2000/svg" width="62" height="61" viewBox="0 0 62 61" fill="none"><g id="Icon" clip-path="url(#clip0_81_218)"><path id="Vector" d="M29.9238 22.1253C30.3285 22.1253 30.6319 22.0242 30.8342 21.8219C31.0365 21.6196 31.1377 21.3498 31.1377 21.0126C31.1377 20.6754 31.0365 20.372 30.8342 20.1022C30.6319 19.8325 30.3622 19.6976 30.025 19.6976C29.6878 19.6976 29.3843 19.8325 29.1146 20.1022C28.8448 20.372 28.71 20.6754 28.71 21.0126C28.71 21.3498 28.8448 21.6196 29.1146 21.8219C29.3843 22.0242 29.6541 22.1253 29.9238 22.1253ZM22.6406 22.1253C22.9104 22.1253 23.1801 22.0242 23.4499 21.8219C23.7196 21.6196 23.8545 21.3498 23.8545 21.0126C23.8545 20.6754 23.7196 20.372 23.4499 20.1022C23.1801 19.8325 22.9104 19.6976 22.6406 19.6976C22.3709 19.6976 22.1012 19.8325 21.8314 20.1022C21.5617 20.372 21.4268 20.6754 21.4268 21.0126C21.4268 21.3498 21.5617 21.6196 21.8314 21.8219C22.1012 22.0242 22.3709 22.1253 22.6406 22.1253ZM54.6057 24.7554C54.336 24.7554 54.1 24.8565 53.8977 25.0588C53.6953 25.2612 53.5942 25.5309 53.5942 25.8681C53.5942 26.2053 53.6953 26.5087 53.8977 26.7785C54.1 27.0482 54.336 27.1831 54.6057 27.1831C55.8196 27.1831 56.7974 27.554 57.5392 28.2958C58.281 29.0376 58.652 29.948 58.652 31.027V48.8304C58.652 50.0442 58.281 51.0221 57.5392 51.7639C56.7974 52.5057 55.8196 52.8766 54.6057 52.8766H26.8892C25.8102 52.8766 24.8661 52.5057 24.0568 51.7639C23.2476 51.0221 22.843 50.0442 22.843 48.8304V31.027C22.843 29.948 23.2476 29.0376 24.0568 28.2958C24.8661 27.554 25.8102 27.1831 26.8892 27.1831H44.0856C44.3553 27.1831 44.5914 27.0482 44.7937 26.7785C44.996 26.5087 45.0971 26.2053 45.0971 25.8681C45.0971 25.5309 44.996 25.2612 44.7937 25.0588C44.5914 24.8565 44.3553 24.7554 44.0856 24.7554H36.6001C36.735 23.9461 36.8024 23.1369 36.8024 22.3277V17.2699H38.4209C38.6906 17.2699 38.9604 17.1687 39.2301 16.9664C39.4999 16.7641 39.6347 16.5281 39.6347 16.2583V12.0098C39.6347 9.85183 39.0953 7.89616 38.0163 6.1428C36.9373 4.38944 35.4874 2.97327 33.6666 1.89428C31.8458 0.815285 29.8564 0.275791 27.6984 0.275791C26.0799 0.275791 24.5963 0.71413 23.2476 1.59081C21.8988 2.46749 20.8873 3.64763 20.2129 5.13124C18.1898 5.26612 16.5376 6.04165 15.2563 7.45782C13.975 8.87399 13.3344 10.5262 13.3344 12.4144V15.8537C13.3344 16.3932 13.5704 16.7304 14.0424 16.8653C14.5145 17.0001 15.0203 17.135 15.5598 17.2699V22.3277C15.5598 24.081 15.9981 25.7669 16.8748 27.3854C17.7515 29.0039 18.9316 30.2852 20.4152 31.2293V32.0386H18.9991C15.6272 32.0386 12.5251 32.8815 9.69277 34.5674C6.86042 36.2534 4.60128 38.5125 2.91536 41.3449C1.22944 44.1772 0.386475 47.3467 0.386475 50.8535V53.8881C0.386475 55.7764 1.09456 57.4286 2.51074 58.8447C3.92691 60.2609 5.57912 60.969 7.46735 60.969H51.3688C51.7734 60.969 52.0769 60.8678 52.2792 60.6655C52.4815 60.4632 52.5826 60.1935 52.5826 59.8563C52.5826 59.5191 52.4815 59.2156 52.2792 58.9459C52.0769 58.6761 51.7734 58.5413 51.3688 58.5413H50.3572C51.1665 57.5971 51.706 56.5182 51.9757 55.3043H54.6057C56.494 55.3043 58.045 54.6636 59.2589 53.3823C60.4727 52.101 61.0797 50.5837 61.0797 48.8304V31.027C61.0797 29.2737 60.4727 27.79 59.2589 26.5762C58.045 25.3623 56.494 24.7554 54.6057 24.7554ZM36.1955 55.3043V58.5413H29.3169V57.9343C29.3169 56.9902 29.0472 56.1135 28.5077 55.3043H36.1955ZM27.6984 2.70352C30.3959 2.70352 32.655 3.61391 34.4758 5.43471C36.2966 7.25551 37.207 9.44721 37.207 12.0098V15.0445H27.6984C26.0799 15.0445 24.6638 14.4375 23.4499 13.2237C22.236 12.0098 21.6291 10.5599 21.6291 8.87399C21.6291 7.18807 22.236 5.73818 23.4499 4.52431C24.6638 3.31045 26.0799 2.70352 27.6984 2.70352ZM15.5598 12.4144C15.5598 11.3354 15.9307 10.3239 16.6725 9.37977C17.4143 8.43565 18.3247 7.82872 19.4037 7.55898L19.2014 8.77284C19.2014 10.5262 19.6734 12.1447 20.6175 13.6283C19.1339 14.8422 17.448 15.2468 15.5598 14.8422V12.4144ZM17.9875 22.3277V17.2699C19.606 17.0001 21.0222 16.3258 22.236 15.2468C23.8545 16.5955 25.6753 17.2699 27.6984 17.2699H34.577V22.3277C34.577 23.1369 34.4421 23.9461 34.1724 24.7554H26.8892C25.5404 24.7554 24.3266 25.1263 23.2476 25.8681C22.1686 26.6099 21.4268 27.5203 21.0222 28.5993C20.078 27.9249 19.3362 27.0145 18.7967 25.8681C18.2573 24.7217 17.9875 23.5415 17.9875 22.3277ZM7.46735 58.5413C6.11861 58.5413 5.0059 58.1029 4.12922 57.2262C3.25254 56.3496 2.8142 55.2369 2.8142 53.8881V50.8535C2.8142 47.8862 3.52229 45.155 4.93847 42.6599C6.35464 40.1647 8.34403 38.1753 10.9066 36.6917C13.4692 35.2081 16.1667 34.4663 18.9991 34.4663H20.4152V48.8304C20.4152 49.6396 20.5501 50.3814 20.8199 51.0558H12.3228C12.0531 51.0558 11.7833 51.1569 11.5136 51.3592C11.2438 51.5615 11.1089 51.8313 11.1089 52.1685C11.1089 52.5057 11.2438 52.7754 11.5136 52.9777C11.7833 53.18 12.0531 53.2812 12.3228 53.2812H20.4152V58.5413H7.46735ZM22.843 58.5413V55.3043H24.2591C24.9335 55.3043 25.5404 55.574 26.0799 56.1135C26.6194 56.653 26.8892 57.26 26.8892 57.9343V58.5413H22.843ZM38.6232 55.3043H43.074V58.5413H38.6232V55.3043ZM45.5018 58.5413V55.3043H49.548C49.2782 56.2484 48.7724 57.0239 48.0306 57.6309C47.2888 58.2378 46.4459 58.5413 45.5018 58.5413ZM40.8486 35.6802C39.6347 35.6802 38.5895 36.0848 37.7128 36.894C36.8361 37.7033 36.3978 38.7148 36.3978 39.9287C36.3978 41.1425 36.8361 42.1878 37.7128 43.0645C38.5895 43.9412 39.6347 44.3795 40.8486 44.3795C42.0625 44.3795 43.074 43.9412 43.8833 43.0645C44.6925 42.1878 45.0971 41.1425 45.0971 39.9287C45.0971 38.7148 44.6925 37.7033 43.8833 36.894C43.074 36.0848 42.0625 35.6802 40.8486 35.6802ZM40.8486 41.9518C40.1742 41.9518 39.6685 41.7832 39.3313 41.446C38.9941 41.1088 38.8255 40.6368 38.8255 40.0298C38.8255 39.4229 38.9941 38.9171 39.3313 38.5125C39.6685 38.1079 40.1405 37.9056 40.7475 37.9056C41.3544 37.9056 41.8602 38.1079 42.2648 38.5125C42.6694 38.9171 42.8717 39.4229 42.8717 40.0298C42.8717 40.6368 42.6694 41.1088 42.2648 41.446C41.8602 41.7832 41.3881 41.9518 40.8486 41.9518ZM49.3457 27.1831C49.6154 27.1831 49.8852 27.0482 50.1549 26.7785C50.4246 26.5087 50.5595 26.2053 50.5595 25.8681C50.5595 25.5309 50.4246 25.2612 50.1549 25.0588C49.8852 24.8565 49.6154 24.7554 49.3457 24.7554C49.0759 24.7554 48.8062 24.8565 48.5364 25.0588C48.2667 25.2612 48.1318 25.5309 48.1318 25.8681C48.1318 26.2053 48.2667 26.5087 48.5364 26.7785C48.8062 27.0482 49.0759 27.1831 49.3457 27.1831Z" fill="white"></path></g><defs><clipPath id="clip0_81_218"><rect width="60.6932" height="60.6932" fill="white" transform="matrix(1 0 0 -1 0.386475 60.969)"></rect></clipPath></defs></svg>