<svg xmlns="http://www.w3.org/2000/svg" width="61" height="61" viewBox="0 0 61 61" fill="none"><g id="Icon" clip-path="url(#clip0_81_212)"><path id="Vector" d="M59.4793 46.8074H58.2655V17.0677C58.2655 15.3144 57.6923 13.8645 56.5458 12.7181C55.3994 11.5716 54.017 10.9984 52.3985 10.9984H48.7569V8.16607C48.7569 6.81733 48.3185 5.70462 47.4419 4.82794C46.5652 3.95126 45.5199 3.51292 44.306 3.51292H29.335C27.9863 3.51292 26.8736 3.95126 25.9969 4.82794C25.1202 5.70462 24.6819 6.81733 24.6819 8.16607V10.9984H8.29474C6.67625 10.9984 5.2938 11.5716 4.14737 12.7181C3.00094 13.8645 2.42773 15.3144 2.42773 17.0677V46.8074H1.21386C0.809243 46.8074 0.505777 46.9423 0.303466 47.212C0.101155 47.4818 0 47.7515 0 48.0213C0 50.7187 0.944117 53.0116 2.83235 54.8998C4.72058 56.7881 7.01344 57.7322 9.71091 57.7322H25.0865C25.3563 57.7322 25.5923 57.631 25.7946 57.4287C25.9969 57.2264 26.0981 56.9567 26.0981 56.6195C26.0981 56.2823 25.9969 55.9788 25.7946 55.7091C25.5923 55.4393 25.3563 55.3045 25.0865 55.3045H9.71091C7.95755 55.3045 6.37279 54.7312 4.95661 53.5848C3.54044 52.4384 2.69748 50.9885 2.42773 49.2351H58.2655C57.9957 50.9885 57.1528 52.4384 55.7366 53.5848C54.3204 54.7312 52.7356 55.3045 50.9823 55.3045H35.6067C35.3369 55.3045 35.1009 55.4393 34.8986 55.7091C34.6963 55.9788 34.5951 56.2823 34.5951 56.6195C34.5951 56.9567 34.6963 57.2264 34.8986 57.4287C35.1009 57.631 35.3369 57.7322 35.6067 57.7322H50.9823C53.6798 57.7322 55.9726 56.7881 57.8609 54.8998C59.7491 53.0116 60.6932 50.7187 60.6932 48.0213C60.6932 47.7515 60.592 47.4818 60.3897 47.212C60.1874 46.9423 59.884 46.8074 59.4793 46.8074ZM27.1096 8.16607C27.1096 7.4917 27.3119 6.95221 27.7166 6.54758C28.1212 6.14296 28.6607 5.94065 29.335 5.94065H44.306C44.8455 5.94065 45.3513 6.14296 45.8234 6.54758C46.2954 6.95221 46.5315 7.4917 46.5315 8.16607V19.0908C46.5315 19.6303 46.2954 20.1361 45.8234 20.6082C45.3513 21.0802 44.8455 21.3163 44.306 21.3163H33.179C32.7743 21.3163 32.5046 21.3837 32.3697 21.5186L30.3466 23.3394V22.3278C30.3466 22.0581 30.2454 21.822 30.0431 21.6197C29.8408 21.4174 29.5036 21.3163 29.0316 21.3163C28.5595 21.3163 28.1212 21.0802 27.7166 20.6082C27.3119 20.1361 27.1096 19.6303 27.1096 19.0908V8.16607ZM4.65315 17.0677C4.65315 15.9887 5.02405 15.1121 5.76585 14.4377C6.50766 13.7633 7.35062 13.4261 8.29474 13.4261H24.6819V15.8539H8.29474C8.02499 15.8539 7.75524 15.955 7.4855 16.1573C7.21575 16.3596 7.08087 16.6631 7.08087 17.0677V46.8074H4.65315V17.0677ZM14.3641 46.8074V46.2005C14.3641 44.4471 14.971 42.9298 16.1849 41.6485C17.3987 40.3672 18.8823 39.7265 20.6357 39.7265H21.2426V41.9519C21.2426 42.3566 21.3438 42.66 21.5461 42.8623C21.7484 43.0647 22.0181 43.1658 22.3553 43.1658C22.6925 43.1658 22.9623 43.0647 23.1646 42.8623C23.3669 42.66 23.468 42.3566 23.468 41.9519V39.7265H24.075C25.8283 39.7265 27.3119 40.3672 28.5258 41.6485C29.7397 42.9298 30.3466 44.4471 30.3466 46.2005V46.8074H14.3641ZM25.4911 34.2641C25.4911 35.0734 25.1877 35.7815 24.5807 36.3884C23.9738 36.9953 23.232 37.2988 22.3553 37.2988C21.4787 37.2988 20.7368 36.9953 20.1299 36.3884C19.523 35.7815 19.2195 35.0734 19.2195 34.2641V33.4549C19.2195 32.6457 19.523 31.9376 20.1299 31.3306C20.7368 30.7237 21.4787 30.4202 22.3553 30.4202C23.232 30.4202 23.9738 30.7237 24.5807 31.3306C25.1877 31.9376 25.4911 32.6457 25.4911 33.4549V34.2641ZM32.7743 46.8074V46.2005C32.7743 44.1774 32.2011 42.3903 31.0547 40.8392C29.9083 39.2882 28.3909 38.2429 26.5027 37.7034C27.3119 36.7593 27.7166 35.6129 27.7166 34.2641V33.4549C27.7166 31.9713 27.2108 30.69 26.1992 29.611C25.1877 28.532 23.9064 27.9925 22.3553 27.9925C20.8043 27.9925 19.523 28.532 18.5114 29.611C17.4999 30.69 16.9941 31.9713 16.9941 33.4549V34.2641C16.9941 35.6129 17.3987 36.7593 18.208 37.7034C16.3197 38.2429 14.8024 39.2882 13.656 40.8392C12.5095 42.3903 11.9363 44.1774 11.9363 46.2005V46.8074H9.5086V18.0793H24.6819V19.0908C24.6819 20.035 24.9854 20.9454 25.5923 21.822C26.1992 22.6987 27.0422 23.2719 28.1212 23.5417V26.374C28.1212 26.7786 28.3235 27.1158 28.7281 27.3856H29.335C29.6048 27.3856 29.8745 27.3181 30.1443 27.1833L33.5836 23.5417H44.306C45.5199 23.5417 46.5652 23.1033 47.4419 22.2267C48.3185 21.35 48.7569 20.3047 48.7569 19.0908V18.0793H51.1846V46.8074H32.7743ZM53.6123 46.8074V17.0677C53.6123 16.6631 53.4775 16.3596 53.2077 16.1573C52.938 15.955 52.6682 15.8539 52.3985 15.8539H48.7569V13.4261H52.3985C53.3426 13.4261 54.1855 13.7633 54.9273 14.4377C55.6692 15.1121 56.0401 15.9887 56.0401 17.0677V46.8074H53.6123ZM32.9766 51.0559H27.7166C27.4468 51.0559 27.1771 51.1908 26.9073 51.4605C26.6376 51.7303 26.5027 52.0338 26.5027 52.3709C26.5027 52.7081 26.6376 52.9779 26.9073 53.1802C27.1771 53.3825 27.4468 53.4837 27.7166 53.4837H32.9766C33.3813 53.4837 33.6847 53.3825 33.887 53.1802C34.0894 52.9779 34.1905 52.7081 34.1905 52.3709C34.1905 52.0338 34.0894 51.7303 33.887 51.4605C33.6847 51.1908 33.3813 51.0559 32.9766 51.0559ZM33.9882 18.0793C34.3928 18.349 34.7974 18.4839 35.2021 18.4839C35.6067 18.4839 35.9439 18.349 36.2136 18.0793L40.6644 15.4493C41.4737 15.0446 41.8783 14.404 41.8783 13.5273C41.8783 12.6506 41.4737 12.01 40.6644 11.6054L36.2136 8.97531C35.5392 8.57069 34.7974 8.57069 33.9882 8.97531C33.179 9.37993 32.7743 10.0543 32.7743 10.9984V16.0562C32.7743 17.0003 33.179 17.6747 33.9882 18.0793ZM35.2021 11.2007L39.4506 13.6285L35.2021 15.8539V11.2007ZM30.3466 55.3045C30.0769 55.3045 29.8071 55.4393 29.5374 55.7091C29.2676 55.9788 29.1327 56.2823 29.1327 56.6195C29.1327 56.9567 29.2676 57.2264 29.5374 57.4287C29.8071 57.631 30.0769 57.7322 30.3466 57.7322C30.6164 57.7322 30.8861 57.631 31.1558 57.4287C31.4256 57.2264 31.5605 56.9567 31.5605 56.6195C31.5605 56.2823 31.4256 55.9788 31.1558 55.7091C30.8861 55.4393 30.6164 55.3045 30.3466 55.3045Z" fill="white"></path></g><defs><clipPath id="clip0_81_212"><rect width="60.6932" height="60.6932" fill="white" transform="matrix(1 0 0 -1 0 60.9692)"></rect></clipPath></defs></svg>