<svg xmlns="http://www.w3.org/2000/svg" width="62" height="62" viewBox="0 0 62 62" fill="none"><g id="Icon" clip-path="url(#clip0_81_787)"><path id="Vector" d="M59.815 47.2244H58.6012V17.4847C58.6012 15.7314 58.028 14.2815 56.8815 13.1351C55.7351 11.9886 54.3526 11.4154 52.7342 11.4154H49.0926V8.58306C49.0926 7.23432 48.6542 6.12161 47.7775 5.24493C46.9009 4.36826 45.8556 3.92992 44.6417 3.92992H29.6707C28.322 3.92992 27.2093 4.36826 26.3326 5.24493C25.4559 6.12161 25.0176 7.23432 25.0176 8.58306V11.4154H8.63043C7.01195 11.4154 5.62949 11.9886 4.48306 13.1351C3.33664 14.2815 2.76342 15.7314 2.76342 17.4847V47.2244H1.54956C1.14494 47.2244 0.84147 47.3593 0.639159 47.629C0.436849 47.8988 0.335693 48.1685 0.335693 48.4383C0.335693 51.1357 1.27981 53.4286 3.16804 55.3168C5.05628 57.2051 7.34913 58.1492 10.0466 58.1492H25.4222C25.692 58.1492 25.928 58.048 26.1303 57.8457C26.3326 57.6434 26.4338 57.3736 26.4338 57.0365C26.4338 56.6993 26.3326 56.3958 26.1303 56.1261C25.928 55.8563 25.692 55.7214 25.4222 55.7214H10.0466C8.29325 55.7214 6.70848 55.1482 5.2923 54.0018C3.87613 52.8554 3.03317 51.4055 2.76342 49.6521H58.6012C58.3314 51.4055 57.4885 52.8554 56.0723 54.0018C54.6561 55.1482 53.0713 55.7214 51.318 55.7214H35.9424C35.6726 55.7214 35.4366 55.8563 35.2343 56.1261C35.032 56.3958 34.9308 56.6993 34.9308 57.0365C34.9308 57.3736 35.032 57.6434 35.2343 57.8457C35.4366 58.048 35.6726 58.1492 35.9424 58.1492H51.318C54.0155 58.1492 56.3083 57.2051 58.1965 55.3168C60.0848 53.4286 61.0289 51.1357 61.0289 48.4383C61.0289 48.1685 60.9277 47.8988 60.7254 47.629C60.5231 47.3593 60.2197 47.2244 59.815 47.2244ZM27.4453 8.58306C27.4453 7.90869 27.6476 7.3692 28.0523 6.96458C28.4569 6.55996 28.9964 6.35764 29.6707 6.35764H44.6417C45.1812 6.35764 45.687 6.55996 46.1591 6.96458C46.6311 7.3692 46.8671 7.90869 46.8671 8.58306V19.5078C46.8671 20.0473 46.6311 20.5531 46.1591 21.0252C45.687 21.4972 45.1812 21.7333 44.6417 21.7333H33.5146C33.11 21.7333 32.8403 21.8007 32.7054 21.9356L30.6823 23.7564V22.7448C30.6823 22.4751 30.5811 22.239 30.3788 22.0367C30.1765 21.8344 29.8393 21.7333 29.3673 21.7333C28.8952 21.7333 28.4569 21.4972 28.0523 21.0252C27.6476 20.5531 27.4453 20.0473 27.4453 19.5078V8.58306ZM4.98884 17.4847C4.98884 16.4057 5.35974 15.5291 6.10155 14.8547C6.84335 14.1803 7.68631 13.8431 8.63043 13.8431H25.0176V16.2709H8.63043C8.36068 16.2709 8.09094 16.372 7.82119 16.5743C7.55144 16.7766 7.41657 17.0801 7.41657 17.4847V47.2244H4.98884V17.4847ZM14.6998 47.2244V46.6175C14.6998 44.8641 15.3067 43.3468 16.5205 42.0655C17.7344 40.7842 19.218 40.1435 20.9714 40.1435H21.5783V42.3689C21.5783 42.7736 21.6795 43.077 21.8818 43.2793C22.0841 43.4816 22.3538 43.5828 22.691 43.5828C23.0282 43.5828 23.298 43.4816 23.5003 43.2793C23.7026 43.077 23.8037 42.7736 23.8037 42.3689V40.1435H24.4107C26.164 40.1435 27.6476 40.7842 28.8615 42.0655C30.0754 43.3468 30.6823 44.8641 30.6823 46.6175V47.2244H14.6998ZM25.8268 34.6811C25.8268 35.4904 25.5234 36.1985 24.9164 36.8054C24.3095 37.4123 23.5677 37.7158 22.691 37.7158C21.8143 37.7158 21.0725 37.4123 20.4656 36.8054C19.8587 36.1985 19.5552 35.4904 19.5552 34.6811V33.8719C19.5552 33.0626 19.8587 32.3546 20.4656 31.7476C21.0725 31.1407 21.8143 30.8372 22.691 30.8372C23.5677 30.8372 24.3095 31.1407 24.9164 31.7476C25.5234 32.3546 25.8268 33.0626 25.8268 33.8719V34.6811ZM33.11 47.2244V46.6175C33.11 44.5944 32.5368 42.8073 31.3904 41.2562C30.244 39.7052 28.7266 38.6599 26.8384 38.1204C27.6476 37.1763 28.0523 36.0299 28.0523 34.6811V33.8719C28.0523 32.3883 27.5465 31.107 26.5349 30.028C25.5234 28.949 24.2421 28.4095 22.691 28.4095C21.14 28.4095 19.8587 28.949 18.8471 30.028C17.8356 31.107 17.3298 32.3883 17.3298 33.8719V34.6811C17.3298 36.0299 17.7344 37.1763 18.5437 38.1204C16.6554 38.6599 15.1381 39.7052 13.9917 41.2562C12.8452 42.8073 12.272 44.5944 12.272 46.6175V47.2244H9.8443V18.4963H25.0176V19.5078C25.0176 20.452 25.3211 21.3624 25.928 22.239C26.5349 23.1157 27.3779 23.6889 28.4569 23.9587V26.791C28.4569 27.1956 28.6592 27.5328 29.0638 27.8026H29.6707C29.9405 27.8026 30.2102 27.7351 30.48 27.6003L33.9193 23.9587H44.6417C45.8556 23.9587 46.9009 23.5203 47.7775 22.6437C48.6542 21.767 49.0926 20.7217 49.0926 19.5078V18.4963H51.5203V47.2244H33.11ZM53.948 47.2244V17.4847C53.948 17.0801 53.8131 16.7766 53.5434 16.5743C53.2737 16.372 53.0039 16.2709 52.7342 16.2709H49.0926V13.8431H52.7342C53.6783 13.8431 54.5212 14.1803 55.263 14.8547C56.0048 15.5291 56.3758 16.4057 56.3758 17.4847V47.2244H53.948ZM33.3123 51.4729H28.0523C27.7825 51.4729 27.5128 51.6078 27.243 51.8775C26.9733 52.1473 26.8384 52.4508 26.8384 52.7879C26.8384 53.1251 26.9733 53.3949 27.243 53.5972C27.5128 53.7995 27.7825 53.9006 28.0523 53.9006H33.3123C33.717 53.9006 34.0204 53.7995 34.2227 53.5972C34.425 53.3949 34.5262 53.1251 34.5262 52.7879C34.5262 52.4508 34.425 52.1473 34.2227 51.8775C34.0204 51.6078 33.717 51.4729 33.3123 51.4729ZM34.3239 18.4963C34.7285 18.766 35.1331 18.9009 35.5378 18.9009C35.9424 18.9009 36.2796 18.766 36.5493 18.4963L41.0001 15.8662C41.8094 15.4616 42.214 14.821 42.214 13.9443C42.214 13.0676 41.8094 12.427 41.0001 12.0223L36.5493 9.3923C35.8749 8.98768 35.1331 8.98768 34.3239 9.3923C33.5146 9.79692 33.11 10.4713 33.11 11.4154V16.4732C33.11 17.4173 33.5146 18.0917 34.3239 18.4963ZM35.5378 11.6177L39.7863 14.0454L35.5378 16.2709V11.6177ZM30.6823 55.7214C30.4125 55.7214 30.1428 55.8563 29.8731 56.1261C29.6033 56.3958 29.4684 56.6993 29.4684 57.0365C29.4684 57.3736 29.6033 57.6434 29.8731 57.8457C30.1428 58.048 30.4125 58.1492 30.6823 58.1492C30.952 58.1492 31.2218 58.048 31.4915 57.8457C31.7613 57.6434 31.8962 57.3736 31.8962 57.0365C31.8962 56.6993 31.7613 56.3958 31.4915 56.1261C31.2218 55.8563 30.952 55.7214 30.6823 55.7214Z" fill="#707070"></path></g><defs><clipPath id="clip0_81_787"><rect width="60.6932" height="60.6932" fill="white" transform="matrix(1 0 0 -1 0.335693 61.3862)"></rect></clipPath></defs></svg>