<svg xmlns="http://www.w3.org/2000/svg" width="61" height="61" viewBox="0 0 61 61" fill="none"><g id="Icon" clip-path="url(#clip0_81_772)"><path id="Vector" d="M29.8442 21.8495C30.2489 21.8495 30.5523 21.7483 30.7546 21.546C30.957 21.3437 31.0581 21.0739 31.0581 20.7368C31.0581 20.3996 30.957 20.0961 30.7546 19.8264C30.5523 19.5566 30.2826 19.4217 29.9454 19.4217C29.6082 19.4217 29.3047 19.5566 29.035 19.8264C28.7653 20.0961 28.6304 20.3996 28.6304 20.7368C28.6304 21.0739 28.7653 21.3437 29.035 21.546C29.3047 21.7483 29.5745 21.8495 29.8442 21.8495ZM22.5611 21.8495C22.8308 21.8495 23.1006 21.7483 23.3703 21.546C23.6401 21.3437 23.7749 21.0739 23.7749 20.7368C23.7749 20.3996 23.6401 20.0961 23.3703 19.8264C23.1006 19.5566 22.8308 19.4217 22.5611 19.4217C22.2913 19.4217 22.0216 19.5566 21.7518 19.8264C21.4821 20.0961 21.3472 20.3996 21.3472 20.7368C21.3472 21.0739 21.4821 21.3437 21.7518 21.546C22.0216 21.7483 22.2913 21.8495 22.5611 21.8495ZM54.5261 24.4795C54.2564 24.4795 54.0204 24.5807 53.8181 24.783C53.6157 24.9853 53.5146 25.255 53.5146 25.5922C53.5146 25.9294 53.6157 26.2329 53.8181 26.5026C54.0204 26.7724 54.2564 26.9072 54.5261 26.9072C55.74 26.9072 56.7178 27.2781 57.4597 28.0199C58.2015 28.7617 58.5724 29.6721 58.5724 30.7511V48.5545C58.5724 49.7683 58.2015 50.7462 57.4597 51.488C56.7178 52.2298 55.74 52.6007 54.5261 52.6007H26.8096C25.7306 52.6007 24.7865 52.2298 23.9772 51.488C23.168 50.7462 22.7634 49.7683 22.7634 48.5545V30.7511C22.7634 29.6721 23.168 28.7617 23.9772 28.0199C24.7865 27.2781 25.7306 26.9072 26.8096 26.9072H44.006C44.2757 26.9072 44.5118 26.7724 44.7141 26.5026C44.9164 26.2329 45.0175 25.9294 45.0175 25.5922C45.0175 25.255 44.9164 24.9853 44.7141 24.783C44.5118 24.5807 44.2757 24.4795 44.006 24.4795H36.5205C36.6554 23.6703 36.7228 22.861 36.7228 22.0518V16.994H38.3413C38.611 16.994 38.8808 16.8929 39.1505 16.6905C39.4203 16.4882 39.5552 16.2522 39.5552 15.9825V11.7339C39.5552 9.57595 39.0157 7.62028 37.9367 5.86692C36.8577 4.11356 35.4078 2.69739 33.587 1.6184C31.7662 0.539406 29.7768 -8.7738e-05 27.6188 -8.7738e-05C26.0003 -8.7738e-05 24.5167 0.438251 23.168 1.31493C21.8193 2.19161 20.8077 3.37175 20.1333 4.85537C18.1102 4.99024 16.458 5.76577 15.1767 7.18194C13.8954 8.59811 13.2548 10.2503 13.2548 12.1385V15.5778C13.2548 16.1173 13.4908 16.4545 13.9629 16.5894C14.4349 16.7243 14.9407 16.8591 15.4802 16.994V22.0518C15.4802 23.8051 15.9185 25.4911 16.7952 27.1095C17.6719 28.728 18.852 30.0093 20.3356 30.9534V31.7627H18.9195C15.5476 31.7627 12.4455 32.6056 9.61318 34.2916C6.78083 35.9775 4.52169 38.2366 2.83577 41.069C1.14985 43.9013 0.306885 47.0709 0.306885 50.5776V53.6122C0.306885 55.5005 1.01497 57.1527 2.43115 58.5689C3.84732 59.985 5.49953 60.6931 7.38776 60.6931H51.2892C51.6938 60.6931 51.9973 60.592 52.1996 60.3896C52.4019 60.1873 52.503 59.9176 52.503 59.5804C52.503 59.2432 52.4019 58.9398 52.1996 58.67C51.9973 58.4003 51.6938 58.2654 51.2892 58.2654H50.2776C51.0869 57.3213 51.6264 56.2423 51.8961 55.0284H54.5261C56.4144 55.0284 57.9654 54.3878 59.1793 53.1065C60.3932 51.8252 61.0001 50.3078 61.0001 48.5545V30.7511C61.0001 28.9978 60.3932 27.5142 59.1793 26.3003C57.9654 25.0864 56.4144 24.4795 54.5261 24.4795ZM36.1159 55.0284V58.2654H29.2373V57.6585C29.2373 56.7143 28.9676 55.8377 28.4281 55.0284H36.1159ZM27.6188 2.42764C30.3163 2.42764 32.5754 3.33804 34.3962 5.15883C36.217 6.97963 37.1274 9.17133 37.1274 11.7339V14.7686H27.6188C26.0003 14.7686 24.5842 14.1617 23.3703 12.9478C22.1564 11.7339 21.5495 10.284 21.5495 8.59811C21.5495 6.91219 22.1564 5.4623 23.3703 4.24844C24.5842 3.03457 26.0003 2.42764 27.6188 2.42764ZM15.4802 12.1385C15.4802 11.0596 15.8511 10.048 16.5929 9.10389C17.3347 8.15977 18.2451 7.55284 19.3241 7.2831L19.1218 8.49696C19.1218 10.2503 19.5938 11.8688 20.538 13.3524C19.0543 14.5663 17.3684 14.9709 15.4802 14.5663V12.1385ZM17.9079 22.0518V16.994C19.5264 16.7243 20.9426 16.0499 22.1564 14.9709C23.7749 16.3196 25.5957 16.994 27.6188 16.994H34.4974V22.0518C34.4974 22.861 34.3625 23.6703 34.0928 24.4795H26.8096C25.4608 24.4795 24.247 24.8504 23.168 25.5922C22.089 26.334 21.3472 27.2444 20.9426 28.3234C19.9985 27.649 19.2567 26.7386 18.7172 25.5922C18.1777 24.4458 17.9079 23.2656 17.9079 22.0518ZM7.38776 58.2654C6.03902 58.2654 4.92631 57.827 4.04963 56.9504C3.17295 56.0737 2.73461 54.961 2.73461 53.6122V50.5776C2.73461 47.6104 3.4427 44.8792 4.85888 42.384C6.27505 39.8888 8.26444 37.8994 10.827 36.4158C13.3896 34.9322 16.0871 34.1904 18.9195 34.1904H20.3356V48.5545C20.3356 49.3637 20.4705 50.1055 20.7403 50.7799H12.2432C11.9735 50.7799 11.7037 50.881 11.434 51.0834C11.1642 51.2857 11.0294 51.5554 11.0294 51.8926C11.0294 52.2298 11.1642 52.4995 11.434 52.7018C11.7037 52.9042 11.9735 53.0053 12.2432 53.0053H20.3356V58.2654H7.38776ZM22.7634 58.2654V55.0284H24.1795C24.8539 55.0284 25.4608 55.2982 26.0003 55.8377C26.5398 56.3772 26.8096 56.9841 26.8096 57.6585V58.2654H22.7634ZM38.5436 55.0284H42.9944V58.2654H38.5436V55.0284ZM45.4222 58.2654V55.0284H49.4684C49.1986 55.9725 48.6929 56.7481 47.951 57.355C47.2092 57.9619 46.3663 58.2654 45.4222 58.2654ZM40.769 35.4043C39.5552 35.4043 38.5099 35.8089 37.6332 36.6181C36.7565 37.4274 36.3182 38.4389 36.3182 39.6528C36.3182 40.8667 36.7565 41.9119 37.6332 42.7886C38.5099 43.6653 39.5552 44.1036 40.769 44.1036C41.9829 44.1036 42.9944 43.6653 43.8037 42.7886C44.6129 41.9119 45.0175 40.8667 45.0175 39.6528C45.0175 38.4389 44.6129 37.4274 43.8037 36.6181C42.9944 35.8089 41.9829 35.4043 40.769 35.4043ZM40.769 41.6759C40.0947 41.6759 39.5889 41.5073 39.2517 41.1701C38.9145 40.833 38.7459 40.3609 38.7459 39.754C38.7459 39.147 38.9145 38.6413 39.2517 38.2366C39.5889 37.832 40.0609 37.6297 40.6679 37.6297C41.2748 37.6297 41.7806 37.832 42.1852 38.2366C42.5898 38.6413 42.7921 39.147 42.7921 39.754C42.7921 40.3609 42.5898 40.833 42.1852 41.1701C41.7806 41.5073 41.3085 41.6759 40.769 41.6759ZM49.2661 26.9072C49.5358 26.9072 49.8056 26.7724 50.0753 26.5026C50.3451 26.2329 50.4799 25.9294 50.4799 25.5922C50.4799 25.255 50.3451 24.9853 50.0753 24.783C49.8056 24.5807 49.5358 24.4795 49.2661 24.4795C48.9963 24.4795 48.7266 24.5807 48.4568 24.783C48.1871 24.9853 48.0522 25.255 48.0522 25.5922C48.0522 25.9294 48.1871 26.2329 48.4568 26.5026C48.7266 26.7724 48.9963 26.9072 49.2661 26.9072Z" fill="#707070"></path></g><defs><clipPath id="clip0_81_772"><rect width="60.6932" height="60.6932" fill="white" transform="matrix(1 0 0 -1 0.306885 60.6931)"></rect></clipPath></defs></svg>