<svg xmlns="http://www.w3.org/2000/svg" width="145" height="66" viewBox="0 0 145 66" fill="none"><g clip-path="url(#clip0_81_840)"><path d="M34.2745 35.4291C36.8896 32.522 38.075 29.7408 37.0815 28.0139C36.5973 27.2729 35.8345 26.7582 34.9666 26.589C33.4843 26.191 31.4836 26.2756 29.2249 26.7628C29.6816 28.4622 30.0014 30.1959 30.1818 31.9456C31.6389 32.9932 33.0093 34.1574 34.2768 35.4268L34.2745 35.4291ZM35.2817 31.1497C35.6517 31.1497 35.9509 31.4493 35.9509 31.8199C35.9509 32.1904 35.6517 32.4877 35.2817 32.4877C34.9118 32.4877 34.6126 32.1881 34.6126 31.8199C34.6126 31.4516 34.9118 31.1497 35.2817 31.1497Z" fill="white"></path><path d="M18.9815 29.6422C19.7808 29.1802 20.5802 28.7525 21.3796 28.3568C20.1257 27.8376 18.8399 27.3985 17.5312 27.0439C17.1772 28.3591 16.9077 29.6948 16.725 31.0443C17.4467 30.564 18.1981 30.0951 18.9792 29.6422H18.9815Z" fill="white"></path><path d="M24.2298 28.357C25.0338 28.7527 25.8331 29.1804 26.6302 29.6424C27.4113 30.0976 28.1627 30.5642 28.8844 31.0445C28.7017 29.6927 28.4299 28.3547 28.0736 27.0396C26.7649 27.3964 25.4814 27.8355 24.2275 28.3547H24.2298V28.357Z" fill="white"></path><path d="M21.0506 36.8744C21.3726 36.8744 21.6353 36.6114 21.6353 36.2889C21.6353 35.6416 22.1583 35.1178 22.8047 35.1178C23.1267 35.1178 23.3893 34.8548 23.3893 34.5323C23.3893 34.2098 23.1267 33.9468 22.8047 33.9468C21.5143 33.9468 20.4659 34.9943 20.4659 36.2889C20.4659 36.6114 20.7286 36.8744 21.0506 36.8744Z" fill="white"></path><path d="M0 65.5952H44.7164V0H0V65.5952ZM12.148 53.5965C11.7803 53.5965 11.4789 53.2968 11.4789 52.9263C11.4789 52.5558 11.7803 52.2562 12.148 52.2562C12.5157 52.2562 12.8172 52.5558 12.8172 52.9263C12.8172 53.2968 12.518 53.5965 12.148 53.5965ZM15.2953 49.9964C15.1103 49.9964 14.9618 49.8477 14.9618 49.6624C14.9618 49.4772 15.1103 49.3285 15.2953 49.3285C15.4802 49.3285 15.631 49.4772 15.631 49.6624C15.631 49.8477 15.4802 49.9964 15.2953 49.9964ZM24.8762 57.2537C24.5062 57.2537 24.207 56.9541 24.207 56.5859C24.207 56.2176 24.5062 55.9157 24.8762 55.9157C25.2462 55.9157 25.5454 56.2153 25.5454 56.5859C25.5454 56.9564 25.2439 57.2537 24.8762 57.2537ZM30.3119 50.0353C29.9236 50.0353 29.6061 49.7196 29.6061 49.3285C29.6061 48.9374 29.9236 48.6218 30.3119 48.6218C30.7001 48.6218 31.0176 48.9374 31.0176 49.3285C31.0176 49.7196 30.7001 50.0353 30.3119 50.0353ZM34.6147 59.2688C34.2196 59.2688 33.8999 58.9486 33.8999 58.5552C33.8999 58.1618 34.2196 57.8416 34.6147 57.8416C35.0098 57.8416 35.3273 58.1618 35.3273 58.5552C35.3273 58.9486 35.0076 59.2688 34.6147 59.2688ZM35.9485 50.2388C35.6311 50.2388 35.373 49.9827 35.373 49.6624C35.373 49.3422 35.6311 49.0838 35.9485 49.0838C36.266 49.0838 36.5286 49.3422 36.5286 49.6624C36.5286 49.9827 36.2683 50.2388 35.9485 50.2388ZM41.6971 37.6934C41.9575 37.6934 42.1699 37.9038 42.1699 38.1669C42.1699 38.4299 41.9575 38.638 41.6971 38.638C41.4367 38.638 41.2243 38.4253 41.2243 38.1669C41.2243 37.9084 41.4367 37.6934 41.6971 37.6934ZM41.9049 46.7577C42.284 46.7577 42.5901 47.0642 42.5901 47.4416C42.5901 47.8189 42.284 48.1254 41.9049 48.1254C41.5258 48.1254 41.2243 47.8189 41.2243 47.4416C41.2243 47.0642 41.5304 46.7577 41.9049 46.7577ZM39.9271 18.4556C40.1646 18.4556 40.3587 18.6477 40.3587 18.8902C40.3587 19.1326 40.1646 19.3225 39.9271 19.3225C39.6895 19.3225 39.4931 19.128 39.4931 18.8902C39.4931 18.6523 39.6873 18.4556 39.9271 18.4556ZM39.7581 36.2891C39.7581 36.9363 39.2351 37.4601 38.5887 37.4601C37.9424 37.4601 37.4194 36.9363 37.4194 36.2891C37.4194 35.6418 37.9424 35.118 38.5887 35.118C39.2351 35.118 39.7581 35.6418 39.7581 36.2891ZM34.062 17.5887C34.5394 17.5887 34.9276 17.9776 34.9276 18.4556C34.9276 18.9336 34.5394 19.3225 34.062 19.3225C33.5847 19.3225 33.1941 18.9336 33.1941 18.4556C33.1941 17.9776 33.5824 17.5887 34.062 17.5887ZM31.7393 11.9119C32.0202 11.9119 32.2509 12.1406 32.2509 12.4242C32.2509 12.7078 32.0202 12.9365 31.7393 12.9365C31.4584 12.9365 31.2277 12.7078 31.2277 12.4242C31.2277 12.1406 31.4561 11.9119 31.7393 11.9119ZM21.7792 6.94401C22.3456 6.94401 22.8047 7.40374 22.8047 7.97097C22.8047 8.5382 22.3456 8.99564 21.7792 8.99564C21.2128 8.99564 20.756 8.53591 20.756 7.97097C20.756 7.40602 21.2151 6.94401 21.7792 6.94401ZM20.756 14.5124C21.1032 14.5124 21.3864 14.796 21.3864 15.146C21.3864 15.4959 21.1032 15.775 20.756 15.775C20.4089 15.775 20.1257 15.4936 20.1257 15.146C20.1257 14.7983 20.4089 14.5124 20.756 14.5124ZM16.4669 7.7331C16.7478 7.7331 16.9785 7.96182 16.9785 8.24543C16.9785 8.52905 16.7478 8.75777 16.4669 8.75777C16.186 8.75777 15.9553 8.52905 15.9553 8.24543C15.9553 7.96182 16.1837 7.7331 16.4669 7.7331ZM11.3898 14.5124C11.7369 14.5124 12.0179 14.796 12.0179 15.146C12.0179 15.4959 11.7369 15.775 11.3898 15.775C11.0426 15.775 10.7594 15.4936 10.7594 15.146C10.7594 14.7983 11.0404 14.5124 11.3898 14.5124ZM10.0903 22.0808C10.458 22.0808 10.7594 22.3828 10.7594 22.751C10.7594 23.1192 10.458 23.4234 10.0903 23.4234C9.72255 23.4234 9.42107 23.1215 9.42107 22.751C9.42107 22.3805 9.72026 22.0808 10.0903 22.0808ZM7.92512 12.4631C8.18548 12.4631 8.3956 12.6758 8.3956 12.9365C8.3956 13.1973 8.18548 13.41 7.92512 13.41C7.66476 13.41 7.45235 13.1996 7.45235 12.9365C7.45235 12.6735 7.66247 12.4631 7.92512 12.4631ZM7.52087 27.4307C8.15579 26.4151 9.17441 25.7038 10.346 25.4591C12.0316 25.0062 14.2469 25.0885 16.725 25.6352C18.0999 21.413 20.2901 18.7278 22.8047 18.7278C25.3193 18.7278 27.5095 21.413 28.8867 25.6352C31.367 25.0908 33.5824 25.0062 35.2679 25.4591C36.3254 25.6809 37.2572 26.2848 37.8944 27.147C38.1342 27.2065 38.3146 27.4215 38.3146 27.68C38.3146 27.7326 38.3055 27.7829 38.2895 27.8332C39.2099 30.0312 37.9332 33.135 35.0898 36.2913C38.1091 39.6444 39.3652 42.938 38.0931 45.1475C37.4582 46.163 36.4396 46.8743 35.2679 47.1191C34.4549 47.3249 33.6167 47.4233 32.7785 47.4118C31.4698 47.3958 30.1634 47.238 28.889 46.9429C27.5141 51.1674 25.3238 53.8504 22.8093 53.8504C20.2947 53.8504 18.1044 51.1652 16.7295 46.9429C15.4528 47.238 14.1487 47.3935 12.8401 47.4118C12.0019 47.4233 11.1637 47.3249 10.3506 47.1191C9.17898 46.8743 8.15808 46.1607 7.52544 45.1452C6.25331 42.9357 7.50945 39.6398 10.5288 36.2891C7.50945 32.9383 6.25331 29.6424 7.52772 27.4307H7.52087ZM7.0207 35.118C7.66704 35.118 8.19005 35.6418 8.19005 36.2891C8.19005 36.9363 7.66704 37.4601 7.0207 37.4601C6.37435 37.4601 5.85134 36.9363 5.85134 36.2891C5.85134 35.6418 6.37435 35.118 7.0207 35.118Z" fill="white"></path><path d="M15.4299 31.9457C15.6081 30.196 15.9278 28.4623 16.3869 26.7629C15.2175 26.4952 14.0208 26.3512 12.8217 26.3351C12.0886 26.326 11.3578 26.4106 10.6475 26.589C9.77959 26.7583 9.01677 27.2729 8.53258 28.014C7.53909 29.7385 8.72443 32.5244 11.3372 35.4268C12.6048 34.1574 13.9728 32.9932 15.4299 31.9457Z" fill="white"></path><path d="M16.5491 39.9828C17.4992 40.6553 18.5064 41.3048 19.5684 41.9201C20.6441 42.5422 21.7267 43.1026 22.8069 43.6012C23.8872 43.1026 24.9721 42.5422 26.0455 41.9201C27.1075 41.3048 28.1147 40.6553 29.0671 39.9828C29.1836 38.7912 29.243 37.5561 29.243 36.289C29.243 35.0218 29.1813 33.7867 29.0671 32.5951C28.117 31.9227 27.1098 31.2731 26.0478 30.6578C24.9744 30.0357 23.8872 29.4753 22.8069 28.979C21.7244 29.4776 20.6395 30.038 19.5707 30.6578C18.5086 31.2731 17.5014 31.9227 16.5513 32.5951C16.4372 33.7867 16.3755 35.0218 16.3755 36.289C16.3755 37.5561 16.4372 38.7912 16.5491 39.9828ZM22.8047 32.1903C25.0657 32.1903 26.8974 34.0246 26.8974 36.289C26.8974 38.5533 25.0657 40.3877 22.8047 40.3877C20.5436 40.3877 18.7119 38.5533 18.7119 36.289C18.7119 34.0246 20.5436 32.1903 22.8047 32.1903Z" fill="white"></path><path d="M27.7403 25.9165C26.5504 22.266 24.7621 19.8965 22.8048 19.8965C20.8475 19.8965 19.0592 22.266 17.8693 25.9165C19.5593 26.3785 21.2083 26.9709 22.8048 27.6913C24.4012 26.9709 26.0525 26.3785 27.7403 25.9165ZM21.6354 23.4074C21.6354 22.7601 22.1584 22.2363 22.8048 22.2363C23.4511 22.2363 23.9741 22.7601 23.9741 23.4074C23.9741 24.0547 23.4511 24.5784 22.8048 24.5784C22.1584 24.5784 21.6354 24.0547 21.6354 23.4074Z" fill="white"></path><path d="M12.1481 36.289C13.1347 37.2794 14.1876 38.2034 15.2976 39.0566C15.2382 38.1577 15.2062 37.2359 15.2062 36.289C15.2062 35.3421 15.2359 34.4204 15.2976 33.5215C14.1876 34.3723 13.137 35.2987 12.1481 36.289ZM13.555 36.3508C13.3585 36.3508 13.1987 36.193 13.1987 35.9963C13.1987 35.7996 13.3585 35.6417 13.555 35.6417C13.7514 35.6417 13.909 35.8018 13.909 35.9963C13.909 36.1907 13.7491 36.3508 13.555 36.3508Z" fill="white"></path><path d="M33.4635 36.2889C32.4746 35.2962 31.4217 34.3722 30.3118 33.519H30.3141C30.3734 34.4202 30.4054 35.342 30.4054 36.2889C30.4054 37.2358 30.3757 38.1575 30.3141 39.0564C31.424 38.2056 32.4746 37.2792 33.4635 36.2889Z" fill="white"></path><path d="M11.3373 37.147C8.7222 40.054 7.53686 42.8353 8.53035 44.5621C9.01454 45.3032 9.77736 45.8178 10.6452 45.9871C12.1275 46.3851 14.1282 46.3004 16.3847 45.8133C15.9279 44.1139 15.6081 42.3801 15.4277 40.6304C13.9706 39.5829 12.6025 38.4187 11.335 37.1493L11.3373 37.147ZM11.6981 43.8988C11.0518 43.8988 10.5288 43.3751 10.5288 42.7278C10.5288 42.0805 11.0518 41.5567 11.6981 41.5567C12.3445 41.5567 12.8675 42.0805 12.8675 42.7278C12.8675 43.3751 12.3445 43.8988 11.6981 43.8988Z" fill="white"></path><path d="M18.9792 42.9333C18.1981 42.4782 17.4467 42.0116 16.725 41.5312C16.9077 42.8807 17.1772 44.2187 17.5335 45.5339C18.8421 45.1771 20.128 44.7379 21.3818 44.2187C20.5802 43.8253 19.7785 43.3953 18.9792 42.9333Z" fill="white"></path><path d="M17.8693 46.6618C19.0592 50.3122 20.8475 52.6817 22.8048 52.6817C24.7621 52.6817 26.5504 50.3122 27.7403 46.6618C26.0525 46.202 24.4012 45.6096 22.8048 44.8892C21.2083 45.6073 19.5571 46.1997 17.8693 46.6618Z" fill="white"></path><path d="M30.1794 40.6281C30.0012 42.3778 29.6815 44.1116 29.2224 45.811C31.4812 46.3027 33.4819 46.3851 34.9641 45.9871C35.832 45.8178 36.5948 45.3032 37.079 44.5621C38.0725 42.8376 36.8872 40.0517 34.2744 37.147C33.0068 38.4164 31.6365 39.5829 30.1794 40.6281Z" fill="white"></path><path d="M24.2299 44.2189C25.4837 44.7404 26.7696 45.1795 28.0782 45.534C28.4322 44.2189 28.7017 42.8832 28.8844 41.5337C28.1627 42.014 27.4113 42.4806 26.6302 42.9335C25.8309 43.3932 25.0292 43.8209 24.2299 44.2189Z" fill="white"></path><path d="M124.091 20.5073L120.715 24.7799L122.727 29.8369L128.115 30.6214L131.482 26.3489L129.47 21.2918C129.47 21.2918 124.399 20.5508 124.093 20.5073H124.091Z" fill="white"></path><path d="M118.639 25.5438L113.251 24.7593L109.885 29.0318L111.897 34.0889L117.273 34.8734L120.649 30.6008L118.637 25.5438H118.639ZM113.914 29.1599C113.834 29.2399 113.713 29.599 113.713 29.599C113.713 29.599 113.592 29.2399 113.512 29.1599C113.434 29.0798 113.071 28.9586 113.071 28.9586C113.071 28.9586 113.434 28.8374 113.512 28.7573C113.592 28.6773 113.713 28.3182 113.713 28.3182C113.713 28.3182 113.834 28.6773 113.914 28.7573C113.994 28.8374 114.352 28.9586 114.352 28.9586C114.352 28.9586 113.994 29.0798 113.914 29.1599Z" fill="white"></path><path d="M100.284 0V65.5952H145V0H100.284ZM139.299 24.5716C139.411 24.4618 139.576 23.9632 139.576 23.9632C139.576 23.9632 139.745 24.4618 139.854 24.5716C139.966 24.6837 140.462 24.8507 140.462 24.8507C140.462 24.8507 139.966 25.0176 139.854 25.1274C139.745 25.2395 139.576 25.7381 139.576 25.7381C139.576 25.7381 139.411 25.2395 139.299 25.1274C139.19 25.0176 138.692 24.8507 138.692 24.8507C138.692 24.8507 139.19 24.6837 139.299 24.5716ZM124.966 5.04561C125.148 4.86263 125.427 4.03466 125.427 4.03466C125.427 4.03466 125.701 4.86263 125.888 5.04561C126.069 5.23088 126.896 5.50763 126.896 5.50763C126.896 5.50763 126.069 5.78438 125.888 5.96736C125.701 6.15034 125.427 6.97831 125.427 6.97831C125.427 6.97831 125.148 6.15034 124.966 5.96736C124.783 5.78438 123.959 5.50763 123.959 5.50763C123.959 5.50763 124.783 5.23088 124.966 5.04561ZM121.122 10.2742C121.202 10.1941 121.323 9.83505 121.323 9.83505C121.323 9.83505 121.444 10.1941 121.524 10.2742C121.604 10.3543 121.96 10.4755 121.96 10.4755C121.96 10.4755 121.604 10.5944 121.524 10.6745C121.444 10.7545 121.323 11.1136 121.323 11.1136C121.323 11.1136 121.202 10.7545 121.122 10.6745C121.042 10.5944 120.683 10.4755 120.683 10.4755C120.683 10.4755 121.042 10.3543 121.122 10.2742ZM115.821 15.5554C115.821 15.5554 116.1 16.3834 116.285 16.5663C116.465 16.7493 117.29 17.0284 117.29 17.0284C117.29 17.0284 116.465 17.3051 116.285 17.4881C116.1 17.6711 115.821 18.4991 115.821 18.4991C115.821 18.4991 115.545 17.6711 115.362 17.4881C115.177 17.3051 114.352 17.0284 114.352 17.0284C114.352 17.0284 115.177 16.7493 115.362 16.5663C115.545 16.3834 115.821 15.5554 115.821 15.5554ZM113.035 7.74682C113.22 7.56156 113.496 6.73587 113.496 6.73587C113.496 6.73587 113.772 7.56156 113.955 7.74682C114.14 7.9298 114.965 8.20655 114.965 8.20655C114.965 8.20655 114.14 8.48331 113.955 8.66857C113.772 8.85155 113.496 9.67724 113.496 9.67724C113.496 9.67724 113.22 8.85155 113.035 8.66857C112.852 8.48331 112.027 8.20655 112.027 8.20655C112.027 8.20655 112.852 7.9298 113.035 7.74682ZM106.443 9.47825C106.521 9.39819 106.642 9.0391 106.642 9.0391C106.642 9.0391 106.763 9.39819 106.843 9.47825C106.921 9.5583 107.282 9.67724 107.282 9.67724C107.282 9.67724 106.921 9.79846 106.843 9.87851C106.763 9.95856 106.642 10.3177 106.642 10.3177C106.642 10.3177 106.521 9.95856 106.443 9.87851C106.361 9.79846 106.005 9.67724 106.005 9.67724C106.005 9.67724 106.361 9.5583 106.443 9.47825ZM106.025 43.8415C105.913 43.9535 105.747 44.4522 105.747 44.4522C105.747 44.4522 105.578 43.9535 105.468 43.8415C105.356 43.7317 104.858 43.5624 104.858 43.5624C104.858 43.5624 105.356 43.3955 105.468 43.2857C105.578 43.1736 105.747 42.675 105.747 42.675C105.747 42.675 105.913 43.1736 106.025 43.2857C106.133 43.3955 106.633 43.5624 106.633 43.5624C106.633 43.5624 106.133 43.7317 106.025 43.8415ZM106.124 30.8866C105.973 31.0376 105.747 31.7169 105.747 31.7169C105.747 31.7169 105.518 31.0376 105.368 30.8866C105.217 30.7357 104.539 30.5093 104.539 30.5093C104.539 30.5093 105.217 30.2805 105.368 30.1296C105.518 29.9786 105.747 29.2993 105.747 29.2993C105.747 29.2993 105.973 29.9786 106.124 30.1296C106.272 30.2805 106.953 30.5093 106.953 30.5093C106.953 30.5093 106.272 30.7357 106.124 30.8866ZM106.921 21.4175C106.811 21.5296 106.642 22.0282 106.642 22.0282C106.642 22.0282 106.475 21.5296 106.363 21.4175C106.254 21.3078 105.756 21.1385 105.756 21.1385C105.756 21.1385 106.254 20.9715 106.363 20.8617C106.473 20.752 106.642 20.2511 106.642 20.2511C106.642 20.2511 106.811 20.7497 106.921 20.8617C107.033 20.9715 107.53 21.1385 107.53 21.1385C107.53 21.1385 107.033 21.3078 106.921 21.4175ZM132.009 37.563C132.146 37.913 132.082 38.3155 131.849 38.6129L128.008 43.4892L130.166 48.1758C131.479 48.0477 132.79 48.7476 133.373 50.0101C134.113 51.6226 133.416 53.5301 131.806 54.2712C130.938 54.6738 129.922 54.6738 129.011 54.2072L125.571 57.3018C126.069 58.5209 125.804 59.9847 124.767 60.9064C123.445 62.0935 121.421 61.9883 120.236 60.6617C119.062 59.3465 119.156 57.3224 120.48 56.1353C121.433 55.2776 122.883 55.0123 124.153 55.7213L127.551 52.6679C126.98 51.4076 127.307 49.9758 128.239 49.0632L125.973 44.1228L120.151 43.2742C119.77 43.2216 119.464 42.9678 119.315 42.6178L117.082 36.989L110.984 36.0992C110.602 36.0466 110.296 35.7927 110.148 35.4428L107.693 29.2421C107.556 28.8922 107.608 28.4896 107.841 28.1923L111.968 22.966C112.201 22.6687 112.582 22.5108 112.952 22.5749L119.05 23.4646L122.807 18.7049C123.04 18.4076 123.41 18.2589 123.792 18.3229L126.037 18.6523L126.745 13.7554C125.58 13.1401 124.861 11.8364 125.062 10.4595C125.315 8.70974 126.957 7.49065 128.693 7.74682C130.44 8.0007 131.658 9.63378 131.402 11.3835C131.212 12.7307 130.205 13.8011 128.839 14.0664L128.131 18.9542L130.376 19.2836C130.758 19.3476 131.064 19.5901 131.212 19.94L133.667 26.1407C133.804 26.4906 133.752 26.8932 133.519 27.1905L129.762 31.9388L132.007 37.5676L132.009 37.563ZM121.28 49.157C121.28 49.157 122.444 48.7659 122.705 48.5074C122.963 48.2467 123.353 47.0825 123.353 47.0825C123.353 47.0825 123.744 48.2467 124.004 48.5074C124.262 48.7659 125.427 49.157 125.427 49.157C125.427 49.157 124.262 49.5481 124.004 49.8065C123.744 50.0673 123.353 51.2338 123.353 51.2338C123.353 51.2338 122.963 50.0673 122.705 49.8065C122.444 49.5481 121.28 49.157 121.28 49.157ZM134.672 28.5194C134.59 28.5971 134.471 28.9585 134.471 28.9585C134.471 28.9585 134.35 28.5971 134.268 28.5194C134.19 28.4393 133.83 28.3181 133.83 28.3181C133.83 28.3181 134.19 28.1969 134.268 28.1168C134.35 28.0368 134.471 27.6777 134.471 27.6777C134.471 27.6777 134.59 28.0368 134.672 28.1168C134.75 28.1969 135.109 28.3181 135.109 28.3181C135.109 28.3181 134.75 28.4393 134.672 28.5194ZM135.634 18.7781C135.524 18.8879 135.355 19.3865 135.355 19.3865C135.355 19.3865 135.188 18.8879 135.077 18.7781C134.969 18.666 134.471 18.4991 134.471 18.4991C134.471 18.4991 134.969 18.3321 135.077 18.22C135.188 18.1079 135.355 17.6093 135.355 17.6093C135.355 17.6093 135.524 18.1079 135.634 18.22C135.746 18.3321 136.244 18.4991 136.244 18.4991C136.244 18.4991 135.746 18.666 135.634 18.7781ZM137.58 3.59551C137.5 3.67557 137.379 4.03466 137.379 4.03466C137.379 4.03466 137.26 3.67557 137.178 3.59551C137.1 3.51546 136.742 3.39424 136.742 3.39424C136.742 3.39424 137.1 3.2753 137.178 3.19525C137.26 3.1152 137.379 2.7561 137.379 2.7561C137.379 2.7561 137.5 3.1152 137.58 3.19525C137.66 3.2753 138.018 3.39424 138.018 3.39424C138.018 3.39424 137.66 3.51546 137.58 3.59551ZM139.854 51.5128C139.745 51.6249 139.576 52.1235 139.576 52.1235C139.576 52.1235 139.411 51.6249 139.299 51.5128C139.19 51.403 138.692 51.2361 138.692 51.2361C138.692 51.2361 139.19 51.0668 139.299 50.957C139.411 50.8449 139.576 50.3463 139.576 50.3463C139.576 50.3463 139.745 50.8449 139.854 50.957C139.966 51.0668 140.462 51.2361 140.462 51.2361C140.462 51.2361 139.966 51.403 139.854 51.5128ZM140.419 36.7968C140.339 36.8769 140.218 37.236 140.218 37.236C140.218 37.236 140.097 36.8769 140.017 36.7968C139.937 36.7168 139.576 36.5956 139.576 36.5956C139.576 36.5956 139.937 36.4743 140.017 36.3943C140.097 36.3142 140.218 35.9551 140.218 35.9551C140.218 35.9551 140.339 36.3142 140.419 36.3943C140.499 36.4743 140.855 36.5956 140.855 36.5956C140.855 36.5956 140.499 36.7168 140.419 36.7968Z" fill="white"></path><path d="M122.419 31.9341L119.053 36.2066L121.065 41.2637L124.623 41.7829C124.699 41.6571 124.788 41.3963 124.788 41.3963C124.788 41.3963 124.906 41.7554 124.989 41.8355C124.989 41.8355 124.989 41.8355 124.991 41.8355L126.441 42.0482L129.808 37.7756L127.807 32.7186L122.419 31.9341Z" fill="white"></path><path d="M75.8252 53.3905C76.0513 53.1641 76.0513 52.7936 75.8252 52.5648C75.5991 52.3384 75.2291 52.3384 75.0008 52.5648C74.7724 52.7913 74.7747 53.1618 75.0008 53.3905C75.2269 53.617 75.5969 53.617 75.8252 53.3905Z" fill="white"></path><path d="M71.2963 50.5043C71.5224 50.2779 71.5224 49.9073 71.2963 49.6786C71.0702 49.4522 70.7002 49.4522 70.4718 49.6786C70.2457 49.9051 70.2457 50.2756 70.4718 50.5043C70.6979 50.733 71.0679 50.7307 71.2963 50.5043Z" fill="white"></path><path d="M68.0006 20.5757C68.3223 20.5757 68.583 20.3145 68.583 19.9924C68.583 19.6703 68.3223 19.4092 68.0006 19.4092C67.679 19.4092 67.4182 19.6703 67.4182 19.9924C67.4182 20.3145 67.679 20.5757 68.0006 20.5757Z" fill="white"></path><path d="M75.8254 45.9687C76.0515 45.7422 76.0515 45.3717 75.8254 45.143C75.5993 44.9165 75.2293 44.9165 75.0009 45.143C74.7748 45.3694 74.7748 45.7399 75.0009 45.9687C75.227 46.1951 75.597 46.1951 75.8254 45.9687Z" fill="white"></path><path d="M68.1721 51.8236C68.1721 53.2097 68.7111 54.5134 69.6909 55.4923C71.7122 57.5165 74.9987 57.5165 77.0177 55.4923C77.9952 54.5134 78.5364 53.2074 78.5364 51.8236V37.4805L68.1721 47.8599V51.8259V51.8236ZM74.1765 44.3193C74.8571 43.6377 75.9648 43.6377 76.6477 44.3193C77.3283 45.0009 77.3283 46.1102 76.6477 46.794C75.9671 47.4756 74.8594 47.4756 74.1765 46.794C73.4959 46.1124 73.4959 45.0031 74.1765 44.3193ZM74.1765 51.7413C74.8571 51.0597 75.9648 51.0597 76.6477 51.7413C77.3283 52.4229 77.3283 53.5322 76.6477 54.2161C75.9671 54.8977 74.8594 54.8977 74.1765 54.2161C73.4959 53.5345 73.4959 52.4252 74.1765 51.7413ZM69.6498 48.8548C70.3304 48.1732 71.4381 48.1732 72.121 48.8548C72.8016 49.5364 72.8016 50.6457 72.121 51.3296C71.4404 52.0112 70.3327 52.0112 69.6498 51.3296C68.9692 50.648 68.9692 49.5387 69.6498 48.8548Z" fill="white"></path><path d="M50.1428 65.5952H94.8592V0H50.1428V65.5952ZM54.1419 48.0294C54.0346 48.0294 53.9455 47.9402 53.9455 47.8327C53.9455 47.7252 54.0346 47.6337 54.1419 47.6337C54.2493 47.6337 54.3383 47.7229 54.3383 47.8327C54.3383 47.9425 54.2516 48.0294 54.1419 48.0294ZM55.0441 42.3776C54.6741 42.3776 54.3726 42.0757 54.3726 41.7052C54.3726 41.3347 54.6741 41.035 55.0441 41.035C55.4141 41.035 55.711 41.3347 55.711 41.7052C55.711 42.0757 55.4118 42.3776 55.0441 42.3776ZM55.0441 35.6212C54.6489 35.6212 54.3292 35.301 54.3292 34.9076C54.3292 34.5142 54.6489 34.194 55.0441 34.194C55.4392 34.194 55.7566 34.5142 55.7566 34.9076C55.7566 35.301 55.4369 35.6212 55.0441 35.6212ZM65.5591 48.0294C65.2417 48.0294 64.9836 47.7732 64.9836 47.453C64.9836 47.1328 65.2417 46.8743 65.5591 46.8743C65.8766 46.8743 66.1392 47.1328 66.1392 47.453C66.1392 47.7732 65.8789 48.0294 65.5591 48.0294ZM81.4208 45.6575C81.0439 45.6575 80.7402 45.351 80.7402 44.9736C80.7402 44.5963 81.0439 44.2898 81.4208 44.2898C81.7976 44.2898 82.1037 44.5963 82.1037 44.9736C82.1037 45.351 81.7976 45.6575 81.4208 45.6575ZM81.4231 37.4761C80.9366 37.4761 80.5415 37.0827 80.5415 36.5956C80.5415 36.1084 80.9366 35.7127 81.4231 35.7127C81.9095 35.7127 82.3024 36.1061 82.3024 36.5956C82.3024 37.085 81.9095 37.4761 81.4231 37.4761ZM89.097 15.823C88.8571 15.823 88.663 15.6286 88.663 15.3907C88.663 15.1528 88.8571 14.9561 89.097 14.9561C89.3368 14.9561 89.5286 15.1483 89.5286 15.3907C89.5286 15.6332 89.3345 15.823 89.097 15.823ZM90.867 34.194C91.1273 34.194 91.3397 34.4044 91.3397 34.6674C91.3397 34.9305 91.1273 35.1386 90.867 35.1386C90.6066 35.1386 90.3942 34.9259 90.3942 34.6674C90.3942 34.409 90.6066 34.194 90.867 34.194ZM91.0748 43.2582C91.4539 43.2582 91.76 43.5647 91.76 43.9421C91.76 44.3195 91.4539 44.626 91.0748 44.626C90.6957 44.626 90.3942 44.3195 90.3942 43.9421C90.3942 43.5647 90.7002 43.2582 91.0748 43.2582ZM88.5054 5.25832C89.3756 5.25832 90.079 5.96507 90.079 6.83422C90.079 7.70336 89.3756 8.4124 88.5054 8.4124C87.6353 8.4124 86.9295 7.70794 86.9295 6.83422C86.9295 5.9605 87.6353 5.25832 88.5054 5.25832ZM86.9295 23.6293C87.2333 23.6293 87.4822 23.8763 87.4822 24.1805C87.4822 24.4847 87.2333 24.7317 86.9295 24.7317C86.6258 24.7317 86.3791 24.4847 86.3791 24.1805C86.3791 23.8763 86.6258 23.6293 86.9295 23.6293ZM85.1207 28.3204C85.1207 28.6886 84.8215 28.9882 84.4515 28.9882C84.0815 28.9882 83.7823 28.6886 83.7823 28.3204C83.7823 27.9521 84.0815 27.6502 84.4515 27.6502C84.8215 27.6502 85.1207 27.9499 85.1207 28.3204ZM83.2319 14.0893C83.7092 14.0893 84.0975 14.4781 84.0975 14.9561C84.0975 15.4342 83.7092 15.823 83.2319 15.823C82.7546 15.823 82.364 15.4342 82.364 14.9561C82.364 14.4781 82.7523 14.0893 83.2319 14.0893ZM80.9092 8.4124C81.1901 8.4124 81.4208 8.64112 81.4208 8.92474C81.4208 9.20835 81.1901 9.43708 80.9092 9.43708C80.6283 9.43708 80.3976 9.20835 80.3976 8.92474C80.3976 8.64112 80.626 8.4124 80.9092 8.4124ZM76.2363 15.8687C77.1453 14.9584 78.6207 14.9584 79.5297 15.8687C80.4387 16.7791 80.4387 18.2566 79.5297 19.1669C78.6207 20.0772 77.1453 20.0772 76.2363 19.1669C75.3273 18.2566 75.3273 16.7791 76.2363 15.8687ZM72.943 15.0431C72.2624 15.7246 71.1547 15.7246 70.4718 15.0431C69.7889 14.3615 69.7912 13.2522 70.4718 12.5683C71.1524 11.8844 72.2601 11.8867 72.943 12.5683C73.6236 13.2499 73.6236 14.3592 72.943 15.0431ZM70.9491 3.44456C71.5155 3.44456 71.9746 3.90429 71.9746 4.47152C71.9746 5.03875 71.5155 5.49619 70.9491 5.49619C70.3827 5.49619 69.9259 5.03646 69.9259 4.47152C69.9259 3.90657 70.385 3.44456 70.9491 3.44456ZM69.2362 18.7552C69.9168 19.4368 69.9168 20.5461 69.2362 21.23C68.5556 21.9116 67.4479 21.9116 66.765 21.23C66.0821 20.5484 66.0844 19.4391 66.765 18.7552C67.4456 18.0736 68.5533 18.0736 69.2362 18.7552ZM66.8861 15.1894C66.8861 15.5371 66.6029 15.8184 66.2557 15.8184C65.9086 15.8184 65.6254 15.5371 65.6254 15.1894C65.6254 14.8418 65.9086 14.5559 66.2557 14.5559C66.6029 14.5559 66.8861 14.8395 66.8861 15.1894ZM65.6368 4.23365C65.9177 4.23365 66.1484 4.46237 66.1484 4.74599C66.1484 5.0296 65.9177 5.25832 65.6368 5.25832C65.3559 5.25832 65.1252 5.0296 65.1252 4.74599C65.1252 4.46237 65.3536 4.23365 65.6368 4.23365ZM65.0498 24.5991C65.4723 24.1759 66.0296 23.9449 66.6257 23.9449H80.0824C80.6785 23.9449 81.2381 24.1759 81.6583 24.5991C82.5285 25.4705 82.5285 26.8863 81.6583 27.7554C81.2358 28.1786 80.6785 28.4096 80.0824 28.4096H79.701V51.8239C79.701 53.521 79.041 55.1175 77.8419 56.3183C75.3685 58.7953 71.3419 58.7953 68.8662 56.3183C67.6672 55.1175 67.0071 53.521 67.0071 51.8239V28.4096H66.6257C66.0296 28.4096 65.47 28.1786 65.0498 27.7554C64.1796 26.884 64.1796 25.4682 65.0498 24.5991ZM62.7248 32.1423C62.9189 32.1423 63.0788 32.3024 63.0788 32.4968C63.0788 32.6913 62.9189 32.8514 62.7248 32.8514C62.5307 32.8514 62.3685 32.6936 62.3685 32.4968C62.3685 32.3001 62.5284 32.1423 62.7248 32.1423ZM62.7248 41.3278C63.1131 41.3278 63.4305 41.6434 63.4305 42.0346C63.4305 42.4257 63.1131 42.7413 62.7248 42.7413C62.3365 42.7413 62.0191 42.4257 62.0191 42.0346C62.0191 41.6434 62.3365 41.3278 62.7248 41.3278ZM60.5597 11.013C60.9068 11.013 61.1877 11.2966 61.1877 11.6465C61.1877 11.9965 60.9068 12.2755 60.5597 12.2755C60.2125 12.2755 59.9293 11.9942 59.9293 11.6465C59.9293 11.2989 60.2102 11.013 60.5597 11.013ZM59.2601 18.5814C59.6278 18.5814 59.9293 18.8833 59.9293 19.2515C59.9293 19.6198 59.6278 19.924 59.2601 19.924C58.8924 19.924 58.591 19.6221 58.591 19.2515C58.591 18.881 58.8901 18.5814 59.2601 18.5814ZM59.2601 27.6502C59.6278 27.6502 59.9293 27.9499 59.9293 28.3204C59.9293 28.6909 59.6278 28.9882 59.2601 28.9882C58.8924 28.9882 58.591 28.6886 58.591 28.3204C58.591 27.9521 58.8901 27.6502 59.2601 27.6502ZM58.6092 37.9381C58.7942 37.9381 58.945 38.0868 58.945 38.2721C58.945 38.4573 58.7942 38.606 58.6092 38.606C58.4242 38.606 58.2758 38.4573 58.2758 38.2721C58.2758 38.0868 58.4242 37.9381 58.6092 37.9381ZM57.095 8.96362C57.3554 8.96362 57.5655 9.17633 57.5655 9.43708C57.5655 9.69782 57.3554 9.91053 57.095 9.91053C56.8346 9.91053 56.6222 9.70011 56.6222 9.43708C56.6222 9.17405 56.8324 8.96362 57.095 8.96362ZM56.0901 25.857C56.4601 25.857 56.7593 26.1567 56.7593 26.5272C56.7593 26.8977 56.4601 27.1974 56.0901 27.1974C55.7201 27.1974 55.4209 26.8977 55.4209 26.5272C55.4209 26.1567 55.7224 25.857 56.0901 25.857ZM54.3292 15.5074C54.9322 15.5074 55.4209 15.9968 55.4209 16.6029C55.4209 17.2091 54.9322 17.6962 54.3292 17.6962C53.7263 17.6962 53.2375 17.2068 53.2375 16.6029C53.2375 15.9991 53.7263 15.5074 54.3292 15.5074Z" fill="white"></path><path d="M66.6257 27.2432H76.6475V28.4097H74.3636C74.5486 28.5194 74.6765 28.7184 74.6765 28.9517C74.6765 29.2971 74.3933 29.5807 74.0461 29.5807C73.699 29.5807 73.4158 29.2971 73.4158 28.9517C73.4158 28.7184 73.5414 28.5194 73.7287 28.4097H68.1719V29.7179H71.7074V30.8844H68.1719V32.1927H70.0607V33.3592H68.1719V34.6675H71.7074V35.834H68.1719V37.1423H70.0607V38.3088H68.1719V39.617H71.7074V40.7835H68.1719V42.0918H70.0607V43.2583H68.1719V46.2157L78.5363 35.8363V27.2477H80.0825C80.3634 27.2477 80.6374 27.1334 80.8361 26.9344C81.2518 26.5181 81.2518 25.8434 80.8361 25.4271C80.6352 25.2258 80.3679 25.1161 80.0825 25.1138H66.6257C66.3448 25.1138 66.0708 25.2281 65.8721 25.4271C65.4564 25.8434 65.4564 26.5181 65.8721 26.9344C66.073 27.1357 66.3403 27.2455 66.6257 27.2477V27.2432Z" fill="white"></path><path d="M71.2963 14.2195C71.5224 14.446 71.8924 14.446 72.1208 14.2195C72.3492 13.9931 72.3469 13.6226 72.1208 13.3938C71.8947 13.1651 71.5247 13.1674 71.2963 13.3938C71.0702 13.6203 71.0702 13.9908 71.2963 14.2195Z" fill="white"></path><path d="M78.7053 18.3435C79.1598 17.8883 79.1598 17.1496 78.7053 16.6944C78.2508 16.2392 77.5131 16.2392 77.0586 16.6944C76.6041 17.1496 76.6041 17.8883 77.0586 18.3435C77.5131 18.7986 78.2508 18.7986 78.7053 18.3435Z" fill="white"></path></g><defs><clipPath id="clip0_81_840"><rect width="145" height="65.5952" fill="white"></rect></clipPath></defs></svg>